<svg width="1605" height="947" viewBox="0 0 1605 947" fill="none" xmlns="http://www.w3.org/2000/svg">
    <path d="M1567.57 34.1423V908.691H36.0312V34.1423H1567.57Z" fill="url(#paint0_radial_535_5663)" stroke="#003F82" stroke-width="2"/>
    <path fill-rule="evenodd" clip-rule="evenodd" d="M1569.27 30.2031V45.316H32.6587V30.2031H1569.27Z" fill="url(#paint1_linear_535_5663)"/>
    <path fill-rule="evenodd" clip-rule="evenodd" d="M1569.27 33.2256V42.2933H32.6584V33.2256H1569.27Z" fill="url(#paint2_linear_535_5663)"/>
    <path fill-rule="evenodd" clip-rule="evenodd" d="M1569.27 36.2483V39.2709H32.6584V36.2483H1569.27Z" fill="url(#paint3_linear_535_5663)"/>
    <path fill-rule="evenodd" clip-rule="evenodd" d="M1569.27 894.661V909.774H32.6587V894.661H1569.27Z" fill="url(#paint4_linear_535_5663)"/>
    <path fill-rule="evenodd" clip-rule="evenodd" d="M1569.27 897.684V906.751H32.6584V897.684H1569.27Z" fill="url(#paint5_linear_535_5663)"/>
    <path fill-rule="evenodd" clip-rule="evenodd" d="M1569.27 900.706V903.729H32.6584V900.706H1569.27Z" fill="url(#paint6_linear_535_5663)"/>
    <g filter="url(#filter0_d_535_5663)">
        <path fill-rule="evenodd" clip-rule="evenodd" d="M1600 3V123.903H1593.85V9.04516H1477.07V3H1600Z" fill="#3699F6"/>
    </g>
    <g filter="url(#filter1_d_535_5663)">
        <path fill-rule="evenodd" clip-rule="evenodd" d="M5 3L5 123.903H11.1464L11.1464 9.04516L127.929 9.04516V3L5 3Z" fill="#3699F6"/>
    </g>
    <g filter="url(#filter2_d_535_5663)">
        <path fill-rule="evenodd" clip-rule="evenodd" d="M1600 940V819.097H1593.85V933.955H1477.07V940H1600Z" fill="#3699F6"/>
    </g>
    <g filter="url(#filter3_d_535_5663)">
        <path fill-rule="evenodd" clip-rule="evenodd" d="M5 940L5 819.097H11.1464L11.1464 933.955H127.929V940H5Z" fill="#3699F6"/>
    </g>
    <path opacity="0.2" fill-rule="evenodd" clip-rule="evenodd" d="M1563.12 172.264V178.31H35.7327V172.264H1563.12Z" fill="#003F82"/>
    <path opacity="0.2" fill-rule="evenodd" clip-rule="evenodd" d="M1563.12 105.768V111.813H35.7327V105.768H1563.12Z" fill="#003F82"/>
    <path opacity="0.2" fill-rule="evenodd" clip-rule="evenodd" d="M103.343 900.706L103.343 42.2934H97.197L97.197 900.706H103.343Z" fill="#003F82"/>
    <path opacity="0.2" fill-rule="evenodd" clip-rule="evenodd" d="M170.954 900.706L170.954 42.2934H164.808L164.808 900.706H170.954Z" fill="#003F82"/>
    <path opacity="0.2" fill-rule="evenodd" clip-rule="evenodd" d="M238.565 900.706L238.565 42.2934H232.418L232.418 900.706H238.565Z" fill="#003F82"/>
    <path opacity="0.2" fill-rule="evenodd" clip-rule="evenodd" d="M306.176 900.706L306.176 42.2934H300.029L300.029 900.706H306.176Z" fill="#003F82"/>
    <path opacity="0.2" fill-rule="evenodd" clip-rule="evenodd" d="M373.787 900.706L373.787 42.2934H367.64L367.64 900.706H373.787Z" fill="#003F82"/>
    <path opacity="0.2" fill-rule="evenodd" clip-rule="evenodd" d="M441.397 900.706L441.397 42.2934H435.251L435.251 900.706H441.397Z" fill="#003F82"/>
    <path opacity="0.2" fill-rule="evenodd" clip-rule="evenodd" d="M509.008 900.706L509.008 42.2934H502.862L502.862 900.706H509.008Z" fill="#003F82"/>
    <path opacity="0.2" fill-rule="evenodd" clip-rule="evenodd" d="M576.619 900.706L576.619 42.2934H570.472L570.472 900.706H576.619Z" fill="#003F82"/>
    <path opacity="0.2" fill-rule="evenodd" clip-rule="evenodd" d="M644.23 900.706L644.23 42.2934H638.083L638.083 900.706H644.23Z" fill="#003F82"/>
    <path opacity="0.2" fill-rule="evenodd" clip-rule="evenodd" d="M711.841 900.706L711.841 42.2934H705.694L705.694 900.706H711.841Z" fill="#003F82"/>
    <path opacity="0.2" fill-rule="evenodd" clip-rule="evenodd" d="M779.451 900.706L779.451 42.2934H773.305L773.305 900.706H779.451Z" fill="#003F82"/>
    <path opacity="0.2" fill-rule="evenodd" clip-rule="evenodd" d="M847.062 900.706L847.062 42.2934H840.916L840.916 900.706H847.062Z" fill="#003F82"/>
    <path opacity="0.2" fill-rule="evenodd" clip-rule="evenodd" d="M914.673 900.706L914.673 42.2934H908.526L908.526 900.706H914.673Z" fill="#003F82"/>
    <path opacity="0.2" fill-rule="evenodd" clip-rule="evenodd" d="M982.284 900.706L982.284 42.2934H976.137L976.137 900.706H982.284Z" fill="#003F82"/>
    <path opacity="0.2" fill-rule="evenodd" clip-rule="evenodd" d="M1049.89 900.706V42.2934H1043.75V900.706H1049.89Z" fill="#003F82"/>
    <path opacity="0.2" fill-rule="evenodd" clip-rule="evenodd" d="M1117.51 900.706V42.2934H1111.36V900.706H1117.51Z" fill="#003F82"/>
    <path opacity="0.2" fill-rule="evenodd" clip-rule="evenodd" d="M1185.12 900.706V42.2934H1178.97V900.706H1185.12Z" fill="#003F82"/>
    <path opacity="0.2" fill-rule="evenodd" clip-rule="evenodd" d="M1252.73 900.706V42.2934H1246.58V900.706H1252.73Z" fill="#003F82"/>
    <path opacity="0.2" fill-rule="evenodd" clip-rule="evenodd" d="M1320.34 900.706V42.2934H1314.19V900.706H1320.34Z" fill="#003F82"/>
    <path opacity="0.2" fill-rule="evenodd" clip-rule="evenodd" d="M1387.95 900.706V42.2934H1381.8V900.706H1387.95Z" fill="#003F82"/>
    <path opacity="0.2" fill-rule="evenodd" clip-rule="evenodd" d="M1455.56 900.706V42.2934H1449.41V900.706H1455.56Z" fill="#003F82"/>
    <path opacity="0.2" fill-rule="evenodd" clip-rule="evenodd" d="M1523.17 900.706V42.2934H1517.02V900.706H1523.17Z" fill="#003F82"/>
    <path opacity="0.2" fill-rule="evenodd" clip-rule="evenodd" d="M1563.12 238.761V244.806H35.7327V238.761H1563.12Z" fill="#003F82"/>
    <path opacity="0.2" fill-rule="evenodd" clip-rule="evenodd" d="M1563.12 305.258V311.303H35.7327V305.258H1563.12Z" fill="#003F82"/>
    <path opacity="0.2" fill-rule="evenodd" clip-rule="evenodd" d="M1563.12 371.755V377.8H35.7327V371.755H1563.12Z" fill="#003F82"/>
    <path opacity="0.2" fill-rule="evenodd" clip-rule="evenodd" d="M1563.12 438.252V444.297H35.7327V438.252H1563.12Z" fill="#003F82"/>
    <path opacity="0.2" fill-rule="evenodd" clip-rule="evenodd" d="M1563.12 504.749V510.794H35.7327V504.749H1563.12Z" fill="#003F82"/>
    <path opacity="0.2" fill-rule="evenodd" clip-rule="evenodd" d="M1563.12 571.245V577.29H35.7327V571.245H1563.12Z" fill="#003F82"/>
    <path opacity="0.2" fill-rule="evenodd" clip-rule="evenodd" d="M1563.12 637.742V643.787H35.7327V637.742H1563.12Z" fill="#003F82"/>
    <path opacity="0.2" fill-rule="evenodd" clip-rule="evenodd" d="M1563.12 704.239V710.284H35.7327V704.239H1563.12Z" fill="#003F82"/>
    <path opacity="0.2" fill-rule="evenodd" clip-rule="evenodd" d="M1563.12 770.735V776.781H35.7327V770.735H1563.12Z" fill="#003F82"/>
    <path opacity="0.2" fill-rule="evenodd" clip-rule="evenodd" d="M1563.12 837.232V843.277H35.7327V837.232H1563.12Z" fill="#003F82"/>
    <defs>
        <filter id="filter0_d_535_5663" x="1472.07" y="0" width="132.929" height="130.903" filterUnits="userSpaceOnUse" color-interpolation-filters="sRGB">
            <feFlood flood-opacity="0" result="BackgroundImageFix"/>
            <feColorMatrix in="SourceAlpha" type="matrix" values="0 0 0 0 0 0 0 0 0 0 0 0 0 0 0 0 0 0 127 0" result="hardAlpha"/>
            <feOffset dy="2"/>
            <feGaussianBlur stdDeviation="2.5"/>
            <feColorMatrix type="matrix" values="0 0 0 0 0.415686 0 0 0 0 0.890196 0 0 0 0 0.988235 0 0 0 0.576471 0"/>
            <feBlend mode="normal" in2="BackgroundImageFix" result="effect1_dropShadow_535_5663"/>
            <feBlend mode="normal" in="SourceGraphic" in2="effect1_dropShadow_535_5663" result="shape"/>
        </filter>
        <filter id="filter1_d_535_5663" x="0" y="0" width="132.929" height="130.903" filterUnits="userSpaceOnUse" color-interpolation-filters="sRGB">
            <feFlood flood-opacity="0" result="BackgroundImageFix"/>
            <feColorMatrix in="SourceAlpha" type="matrix" values="0 0 0 0 0 0 0 0 0 0 0 0 0 0 0 0 0 0 127 0" result="hardAlpha"/>
            <feOffset dy="2"/>
            <feGaussianBlur stdDeviation="2.5"/>
            <feColorMatrix type="matrix" values="0 0 0 0 0.415686 0 0 0 0 0.890196 0 0 0 0 0.988235 0 0 0 0.576471 0"/>
            <feBlend mode="normal" in2="BackgroundImageFix" result="effect1_dropShadow_535_5663"/>
            <feBlend mode="normal" in="SourceGraphic" in2="effect1_dropShadow_535_5663" result="shape"/>
        </filter>
        <filter id="filter2_d_535_5663" x="1472.07" y="816.097" width="132.929" height="130.903" filterUnits="userSpaceOnUse" color-interpolation-filters="sRGB">
            <feFlood flood-opacity="0" result="BackgroundImageFix"/>
            <feColorMatrix in="SourceAlpha" type="matrix" values="0 0 0 0 0 0 0 0 0 0 0 0 0 0 0 0 0 0 127 0" result="hardAlpha"/>
            <feOffset dy="2"/>
            <feGaussianBlur stdDeviation="2.5"/>
            <feColorMatrix type="matrix" values="0 0 0 0 0.415686 0 0 0 0 0.890196 0 0 0 0 0.988235 0 0 0 0.576471 0"/>
            <feBlend mode="normal" in2="BackgroundImageFix" result="effect1_dropShadow_535_5663"/>
            <feBlend mode="normal" in="SourceGraphic" in2="effect1_dropShadow_535_5663" result="shape"/>
        </filter>
        <filter id="filter3_d_535_5663" x="0" y="816.097" width="132.929" height="130.903" filterUnits="userSpaceOnUse" color-interpolation-filters="sRGB">
            <feFlood flood-opacity="0" result="BackgroundImageFix"/>
            <feColorMatrix in="SourceAlpha" type="matrix" values="0 0 0 0 0 0 0 0 0 0 0 0 0 0 0 0 0 0 127 0" result="hardAlpha"/>
            <feOffset dy="2"/>
            <feGaussianBlur stdDeviation="2.5"/>
            <feColorMatrix type="matrix" values="0 0 0 0 0.415686 0 0 0 0 0.890196 0 0 0 0 0.988235 0 0 0 0.576471 0"/>
            <feBlend mode="normal" in2="BackgroundImageFix" result="effect1_dropShadow_535_5663"/>
            <feBlend mode="normal" in="SourceGraphic" in2="effect1_dropShadow_535_5663" result="shape"/>
        </filter>
        <radialGradient id="paint0_radial_535_5663" cx="0" cy="0" r="1" gradientUnits="userSpaceOnUse" gradientTransform="translate(801.799 471.417) rotate(90) scale(727.863 1273.41)">
            <stop stop-color="#133EAD" stop-opacity="0.737255"/>
            <stop offset="1" stop-color="#051220" stop-opacity="0.466667"/>
        </radialGradient>
        <linearGradient id="paint1_linear_535_5663" x1="32.6587" y1="45.316" x2="1569.27" y2="45.316" gradientUnits="userSpaceOnUse">
            <stop stop-color="#0E2163" stop-opacity="0.54902"/>
            <stop offset="0.410104" stop-color="#0093FF"/>
            <stop offset="0.48523" stop-color="#0084EE"/>
            <stop offset="0.53862" stop-color="#007DF2"/>
            <stop offset="1" stop-color="#00336F"/>
        </linearGradient>
        <linearGradient id="paint2_linear_535_5663" x1="32.6584" y1="42.2697" x2="1569.27" y2="42.2697" gradientUnits="userSpaceOnUse">
            <stop stop-color="#000E40"/>
            <stop offset="0.410104" stop-color="#0093FF"/>
            <stop offset="0.48523" stop-color="#86FFFF"/>
            <stop offset="0.53862" stop-color="#007DF2"/>
            <stop offset="1" stop-color="#003774"/>
        </linearGradient>
        <linearGradient id="paint3_linear_535_5663" x1="32.6584" y1="37.8776" x2="1569.27" y2="37.8776" gradientUnits="userSpaceOnUse">
            <stop stop-color="#407DC4" stop-opacity="0.278431"/>
            <stop offset="0.410104" stop-color="#00FFFB"/>
            <stop offset="0.494151" stop-color="white"/>
            <stop offset="0.629046" stop-color="#00DDFF"/>
            <stop offset="1" stop-color="#1F738A" stop-opacity="0.196078"/>
        </linearGradient>
        <linearGradient id="paint4_linear_535_5663" x1="32.6587" y1="909.774" x2="1569.27" y2="909.774" gradientUnits="userSpaceOnUse">
            <stop stop-color="#0E2163" stop-opacity="0.54902"/>
            <stop offset="0.410104" stop-color="#0093FF"/>
            <stop offset="0.48523" stop-color="#0084EE"/>
            <stop offset="0.53862" stop-color="#007DF2"/>
            <stop offset="1" stop-color="#00336F"/>
        </linearGradient>
        <linearGradient id="paint5_linear_535_5663" x1="32.6584" y1="906.728" x2="1569.27" y2="906.728" gradientUnits="userSpaceOnUse">
            <stop stop-color="#000E40"/>
            <stop offset="0.410104" stop-color="#0093FF"/>
            <stop offset="0.48523" stop-color="#86FFFF"/>
            <stop offset="0.53862" stop-color="#007DF2"/>
            <stop offset="1" stop-color="#003774"/>
        </linearGradient>
        <linearGradient id="paint6_linear_535_5663" x1="32.6584" y1="902.336" x2="1569.27" y2="902.336" gradientUnits="userSpaceOnUse">
            <stop stop-color="#407DC4" stop-opacity="0.278431"/>
            <stop offset="0.410104" stop-color="#00FFFB"/>
            <stop offset="0.494151" stop-color="white"/>
            <stop offset="0.629046" stop-color="#00DDFF"/>
            <stop offset="1" stop-color="#1F738A" stop-opacity="0.196078"/>
        </linearGradient>
    </defs>
</svg>
