<svg width="780" height="710" viewBox="0 0 780 710" fill="none" xmlns="http://www.w3.org/2000/svg">
    <path d="M19.9805 26.8262H758.944V679.174H19.9805V26.8262Z" fill="url(#paint0_radial_535_5662)" stroke="#003F82" stroke-width="2"/>
    <path fill-rule="evenodd" clip-rule="evenodd" d="M760.164 23.3225V34.6128H18.3528V23.3225H760.164V23.3225Z" fill="url(#paint1_linear_535_5662)"/>
    <path fill-rule="evenodd" clip-rule="evenodd" d="M760.164 25.5806V32.3548H18.3525V25.5806H760.164V25.5806Z" fill="url(#paint2_linear_535_5662)"/>
    <path fill-rule="evenodd" clip-rule="evenodd" d="M760.164 27.8386V30.0967H18.3525V27.8386H760.164V27.8386Z" fill="url(#paint3_linear_535_5662)"/>
    <path fill-rule="evenodd" clip-rule="evenodd" d="M760.164 669.129V680.419H18.3528V669.129H760.164V669.129Z" fill="url(#paint4_linear_535_5662)"/>
    <path fill-rule="evenodd" clip-rule="evenodd" d="M760.164 671.387V678.161H18.3525V671.387H760.164V671.387Z" fill="url(#paint5_linear_535_5662)"/>
    <path fill-rule="evenodd" clip-rule="evenodd" d="M760.164 673.645V675.903H18.3525V673.645H760.164V673.645Z" fill="url(#paint6_linear_535_5662)"/>
    <g filter="url(#filter0_d_535_5662)">
        <path fill-rule="evenodd" clip-rule="evenodd" d="M775 3V93.3226H772.033V7.51613H715.655V3H775V3Z" fill="#3699F6"/>
    </g>
    <g filter="url(#filter1_d_535_5662)">
        <path fill-rule="evenodd" clip-rule="evenodd" d="M5.00008 3L5.00008 93.3226L7.96732 93.3226L7.96732 7.51613L64.345 7.51613V3L5.00008 3V3Z" fill="#3699F6"/>
    </g>
    <g filter="url(#filter2_d_535_5662)">
        <path fill-rule="evenodd" clip-rule="evenodd" d="M775 703V612.677H772.033V698.484H715.655V703H775V703Z" fill="#3699F6"/>
    </g>
    <g filter="url(#filter3_d_535_5662)">
        <path fill-rule="evenodd" clip-rule="evenodd" d="M5.00008 703L5.00008 612.677H7.96732L7.96732 698.484H64.345V703H5.00008V703Z" fill="#3699F6"/>
    </g>
    <path opacity="0.2" fill-rule="evenodd" clip-rule="evenodd" d="M757.197 129.452V133.968H19.8364V129.452H757.197V129.452Z" fill="#003F82"/>
    <path opacity="0.2" fill-rule="evenodd" clip-rule="evenodd" d="M757.197 79.7739V84.2901H19.8364V79.7739H757.197V79.7739Z" fill="#003F82"/>
    <path opacity="0.2" fill-rule="evenodd" clip-rule="evenodd" d="M52.476 673.645L52.476 32.3548H49.5088L49.5088 673.645H52.476V673.645Z" fill="#003F82"/>
    <path opacity="0.2" fill-rule="evenodd" clip-rule="evenodd" d="M85.1159 673.645L85.1159 32.3548H82.1487L82.1487 673.645H85.1159V673.645Z" fill="#003F82"/>
    <path opacity="0.2" fill-rule="evenodd" clip-rule="evenodd" d="M117.755 673.645L117.755 32.3548H114.788L114.788 673.645H117.755V673.645Z" fill="#003F82"/>
    <path opacity="0.2" fill-rule="evenodd" clip-rule="evenodd" d="M150.395 673.645L150.395 32.3548H147.428L147.428 673.645H150.395V673.645Z" fill="#003F82"/>
    <path opacity="0.2" fill-rule="evenodd" clip-rule="evenodd" d="M183.035 673.645L183.035 32.3548H180.068L180.068 673.645H183.035V673.645Z" fill="#003F82"/>
    <path opacity="0.2" fill-rule="evenodd" clip-rule="evenodd" d="M215.675 673.645L215.675 32.3548H212.707L212.707 673.645H215.675V673.645Z" fill="#003F82"/>
    <path opacity="0.2" fill-rule="evenodd" clip-rule="evenodd" d="M248.314 673.645L248.314 32.3548H245.347L245.347 673.645H248.314V673.645Z" fill="#003F82"/>
    <path opacity="0.2" fill-rule="evenodd" clip-rule="evenodd" d="M280.954 673.645L280.954 32.3548H277.987L277.987 673.645H280.954V673.645Z" fill="#003F82"/>
    <path opacity="0.2" fill-rule="evenodd" clip-rule="evenodd" d="M313.593 673.645L313.593 32.3548H310.626L310.626 673.645H313.593V673.645Z" fill="#003F82"/>
    <path opacity="0.2" fill-rule="evenodd" clip-rule="evenodd" d="M346.233 673.645L346.233 32.3548H343.266L343.266 673.645H346.233V673.645Z" fill="#003F82"/>
    <path opacity="0.2" fill-rule="evenodd" clip-rule="evenodd" d="M378.873 673.645L378.873 32.3548H375.906L375.906 673.645H378.873V673.645Z" fill="#003F82"/>
    <path opacity="0.2" fill-rule="evenodd" clip-rule="evenodd" d="M411.513 673.645L411.513 32.3548H408.545L408.545 673.645H411.513V673.645Z" fill="#003F82"/>
    <path opacity="0.2" fill-rule="evenodd" clip-rule="evenodd" d="M444.152 673.645L444.152 32.3548H441.185L441.185 673.645H444.152V673.645Z" fill="#003F82"/>
    <path opacity="0.2" fill-rule="evenodd" clip-rule="evenodd" d="M476.792 673.645L476.792 32.3548H473.825L473.825 673.645H476.792V673.645Z" fill="#003F82"/>
    <path opacity="0.2" fill-rule="evenodd" clip-rule="evenodd" d="M509.432 673.645L509.432 32.3548H506.465L506.465 673.645H509.432V673.645Z" fill="#003F82"/>
    <path opacity="0.2" fill-rule="evenodd" clip-rule="evenodd" d="M542.072 673.645V32.3548H539.104V673.645H542.072V673.645Z" fill="#003F82"/>
    <path opacity="0.2" fill-rule="evenodd" clip-rule="evenodd" d="M574.711 673.645V32.3548H571.744V673.645H574.711V673.645Z" fill="#003F82"/>
    <path opacity="0.2" fill-rule="evenodd" clip-rule="evenodd" d="M607.351 673.645V32.3548H604.384V673.645H607.351V673.645Z" fill="#003F82"/>
    <path opacity="0.2" fill-rule="evenodd" clip-rule="evenodd" d="M639.991 673.645V32.3548H637.024V673.645H639.991V673.645Z" fill="#003F82"/>
    <path opacity="0.2" fill-rule="evenodd" clip-rule="evenodd" d="M672.63 673.645V32.3548H669.663V673.645H672.63V673.645Z" fill="#003F82"/>
    <path opacity="0.2" fill-rule="evenodd" clip-rule="evenodd" d="M705.27 673.645V32.3548H702.303V673.645H705.27V673.645Z" fill="#003F82"/>
    <path opacity="0.2" fill-rule="evenodd" clip-rule="evenodd" d="M737.91 673.645V32.3548H734.942V673.645H737.91V673.645Z" fill="#003F82"/>
    <path opacity="0.2" fill-rule="evenodd" clip-rule="evenodd" d="M757.197 179.129V183.645H19.8364V179.129H757.197V179.129Z" fill="#003F82"/>
    <path opacity="0.2" fill-rule="evenodd" clip-rule="evenodd" d="M757.197 228.806V233.323H19.8364V228.806H757.197V228.806Z" fill="#003F82"/>
    <path opacity="0.2" fill-rule="evenodd" clip-rule="evenodd" d="M757.197 278.484V283H19.8364V278.484H757.197V278.484Z" fill="#003F82"/>
    <path opacity="0.2" fill-rule="evenodd" clip-rule="evenodd" d="M757.197 328.161V332.678H19.8364V328.161H757.197V328.161Z" fill="#003F82"/>
    <path opacity="0.2" fill-rule="evenodd" clip-rule="evenodd" d="M757.197 377.839V382.355H19.8364V377.839H757.197V377.839Z" fill="#003F82"/>
    <path opacity="0.2" fill-rule="evenodd" clip-rule="evenodd" d="M757.197 427.516V432.032H19.8364V427.516H757.197V427.516Z" fill="#003F82"/>
    <path opacity="0.2" fill-rule="evenodd" clip-rule="evenodd" d="M757.197 477.194V481.71H19.8364V477.194H757.197V477.194Z" fill="#003F82"/>
    <path opacity="0.2" fill-rule="evenodd" clip-rule="evenodd" d="M757.197 526.871V531.387H19.8364V526.871H757.197V526.871Z" fill="#003F82"/>
    <path opacity="0.2" fill-rule="evenodd" clip-rule="evenodd" d="M757.197 576.548V581.064H19.8364V576.548H757.197V576.548Z" fill="#003F82"/>
    <path opacity="0.2" fill-rule="evenodd" clip-rule="evenodd" d="M757.197 626.226V630.742H19.8364V626.226H757.197V626.226Z" fill="#003F82"/>
    <defs>
        <filter id="filter0_d_535_5662" x="710.655" y="0" width="69.345" height="100.323" filterUnits="userSpaceOnUse" color-interpolation-filters="sRGB">
            <feFlood flood-opacity="0" result="BackgroundImageFix"/>
            <feColorMatrix in="SourceAlpha" type="matrix" values="0 0 0 0 0 0 0 0 0 0 0 0 0 0 0 0 0 0 127 0" result="hardAlpha"/>
            <feOffset dy="2"/>
            <feGaussianBlur stdDeviation="2.5"/>
            <feColorMatrix type="matrix" values="0 0 0 0 0.415686 0 0 0 0 0.890196 0 0 0 0 0.988235 0 0 0 0.576471 0"/>
            <feBlend mode="normal" in2="BackgroundImageFix" result="effect1_dropShadow_535_5662"/>
            <feBlend mode="normal" in="SourceGraphic" in2="effect1_dropShadow_535_5662" result="shape"/>
        </filter>
        <filter id="filter1_d_535_5662" x="0" y="0" width="69.345" height="100.323" filterUnits="userSpaceOnUse" color-interpolation-filters="sRGB">
            <feFlood flood-opacity="0" result="BackgroundImageFix"/>
            <feColorMatrix in="SourceAlpha" type="matrix" values="0 0 0 0 0 0 0 0 0 0 0 0 0 0 0 0 0 0 127 0" result="hardAlpha"/>
            <feOffset dy="2"/>
            <feGaussianBlur stdDeviation="2.5"/>
            <feColorMatrix type="matrix" values="0 0 0 0 0.415686 0 0 0 0 0.890196 0 0 0 0 0.988235 0 0 0 0.576471 0"/>
            <feBlend mode="normal" in2="BackgroundImageFix" result="effect1_dropShadow_535_5662"/>
            <feBlend mode="normal" in="SourceGraphic" in2="effect1_dropShadow_535_5662" result="shape"/>
        </filter>
        <filter id="filter2_d_535_5662" x="710.655" y="609.677" width="69.345" height="100.323" filterUnits="userSpaceOnUse" color-interpolation-filters="sRGB">
            <feFlood flood-opacity="0" result="BackgroundImageFix"/>
            <feColorMatrix in="SourceAlpha" type="matrix" values="0 0 0 0 0 0 0 0 0 0 0 0 0 0 0 0 0 0 127 0" result="hardAlpha"/>
            <feOffset dy="2"/>
            <feGaussianBlur stdDeviation="2.5"/>
            <feColorMatrix type="matrix" values="0 0 0 0 0.415686 0 0 0 0 0.890196 0 0 0 0 0.988235 0 0 0 0.576471 0"/>
            <feBlend mode="normal" in2="BackgroundImageFix" result="effect1_dropShadow_535_5662"/>
            <feBlend mode="normal" in="SourceGraphic" in2="effect1_dropShadow_535_5662" result="shape"/>
        </filter>
        <filter id="filter3_d_535_5662" x="0" y="609.677" width="69.345" height="100.323" filterUnits="userSpaceOnUse" color-interpolation-filters="sRGB">
            <feFlood flood-opacity="0" result="BackgroundImageFix"/>
            <feColorMatrix in="SourceAlpha" type="matrix" values="0 0 0 0 0 0 0 0 0 0 0 0 0 0 0 0 0 0 127 0" result="hardAlpha"/>
            <feOffset dy="2"/>
            <feGaussianBlur stdDeviation="2.5"/>
            <feColorMatrix type="matrix" values="0 0 0 0 0.415686 0 0 0 0 0.890196 0 0 0 0 0.988235 0 0 0 0.576471 0"/>
            <feBlend mode="normal" in2="BackgroundImageFix" result="effect1_dropShadow_535_5662"/>
            <feBlend mode="normal" in="SourceGraphic" in2="effect1_dropShadow_535_5662" result="shape"/>
        </filter>
        <radialGradient id="paint0_radial_535_5662" cx="0" cy="0" r="1" gradientUnits="userSpaceOnUse" gradientTransform="translate(389.462 353) rotate(90) scale(543.353 615.277)">
            <stop stop-color="#133EAD" stop-opacity="0.737255"/>
            <stop offset="1" stop-color="#051220" stop-opacity="0.466667"/>
        </radialGradient>
        <linearGradient id="paint1_linear_535_5662" x1="18.3528" y1="34.6128" x2="760.164" y2="34.6128" gradientUnits="userSpaceOnUse">
            <stop stop-color="#0E2163" stop-opacity="0.54902"/>
            <stop offset="0.410104" stop-color="#0093FF"/>
            <stop offset="0.48523" stop-color="#0084EE"/>
            <stop offset="0.53862" stop-color="#007DF2"/>
            <stop offset="1" stop-color="#00336F"/>
        </linearGradient>
        <linearGradient id="paint2_linear_535_5662" x1="18.3525" y1="32.3371" x2="760.164" y2="32.3371" gradientUnits="userSpaceOnUse">
            <stop stop-color="#000E40"/>
            <stop offset="0.410104" stop-color="#0093FF"/>
            <stop offset="0.48523" stop-color="#86FFFF"/>
            <stop offset="0.53862" stop-color="#007DF2"/>
            <stop offset="1" stop-color="#003774"/>
        </linearGradient>
        <linearGradient id="paint3_linear_535_5662" x1="18.3525" y1="29.0559" x2="760.164" y2="29.0559" gradientUnits="userSpaceOnUse">
            <stop stop-color="#407DC4" stop-opacity="0.278431"/>
            <stop offset="0.410104" stop-color="#00FFFB"/>
            <stop offset="0.494151" stop-color="white"/>
            <stop offset="0.629046" stop-color="#00DDFF"/>
            <stop offset="1" stop-color="#1F738A" stop-opacity="0.196078"/>
        </linearGradient>
        <linearGradient id="paint4_linear_535_5662" x1="18.3528" y1="680.419" x2="760.164" y2="680.419" gradientUnits="userSpaceOnUse">
            <stop stop-color="#0E2163" stop-opacity="0.54902"/>
            <stop offset="0.410104" stop-color="#0093FF"/>
            <stop offset="0.48523" stop-color="#0084EE"/>
            <stop offset="0.53862" stop-color="#007DF2"/>
            <stop offset="1" stop-color="#00336F"/>
        </linearGradient>
        <linearGradient id="paint5_linear_535_5662" x1="18.3525" y1="678.144" x2="760.164" y2="678.144" gradientUnits="userSpaceOnUse">
            <stop stop-color="#000E40"/>
            <stop offset="0.410104" stop-color="#0093FF"/>
            <stop offset="0.48523" stop-color="#86FFFF"/>
            <stop offset="0.53862" stop-color="#007DF2"/>
            <stop offset="1" stop-color="#003774"/>
        </linearGradient>
        <linearGradient id="paint6_linear_535_5662" x1="18.3525" y1="674.862" x2="760.164" y2="674.862" gradientUnits="userSpaceOnUse">
            <stop stop-color="#407DC4" stop-opacity="0.278431"/>
            <stop offset="0.410104" stop-color="#00FFFB"/>
            <stop offset="0.494151" stop-color="white"/>
            <stop offset="0.629046" stop-color="#00DDFF"/>
            <stop offset="1" stop-color="#1F738A" stop-opacity="0.196078"/>
        </linearGradient>
    </defs>
</svg>
