<svg width="648" height="93" viewBox="0 0 648 93" fill="none" xmlns="http://www.w3.org/2000/svg">
    <path fill-rule="evenodd" clip-rule="evenodd" d="M2.46436 68.6101L46.1795 91.9999H251.642L263.299 85.7627H382.788L394.445 91.9999H602.822L646.537 68.6101V24.9493L602.822 1.55945H394.445L382.788 7.79677H263.299L251.642 1.55945H46.1795L2.46436 24.9493V68.6101Z" fill="#03111C" fill-opacity="0.34902" stroke="#0AD6FB"/>
    <path fill-rule="evenodd" clip-rule="evenodd" d="M2.46436 1.55945V17.1526L31.7404 1.55945H2.46436Z" fill="#0AD6FB"/>
    <path fill-rule="evenodd" clip-rule="evenodd" d="M24.4208 91.2201L1 78.7456V74.0676L33.2036 91.2201H24.4208V91.2201Z" stroke="#0AD6FB"/>
    <path fill-rule="evenodd" clip-rule="evenodd" d="M645.073 91.2201V75.6269L615.797 91.2201H645.073Z" fill="#0AD6FB"/>
    <path fill-rule="evenodd" clip-rule="evenodd" d="M623.116 1.55941L646.537 14.034V18.7119L614.333 1.55941L623.116 1.55941V1.55941Z" stroke="#0AD6FB"/>
    <path fill-rule="evenodd" clip-rule="evenodd" d="M365.326 3.11864H288.326L283.514 0H371.342L365.326 3.11864Z" fill="#0AD6FB"/>
    <path fill-rule="evenodd" clip-rule="evenodd" d="M288.065 88.8814H365.065L369.877 92H282.049L288.065 88.8814Z" fill="#0AD6FB"/>
</svg>
