<svg width="1647" height="935" viewBox="0 0 1647 935" fill="none" xmlns="http://www.w3.org/2000/svg">
    <path d="M1639.5 77.2478H1640V81.2645H1639.5V85.2811H1640V89.2978H1639.5V93.3145H1640V97.3311H1639.5V101.348H1640V105.364H1639.5V109.381H1640V113.398H1639.5V117.414H1640V121.431H1639.5V125.448H1640V129.464H1639.5V133.481H1640V137.498H1639.5V141.514H1640V145.531H1639.5V149.548H1640V153.564H1639.5V157.581H1640V161.598H1639.5V165.614H1640V169.631H1639.5V173.648H1640V177.664H1639.5V181.681H1640V185.698H1639.5V189.714H1640V193.731H1639.5V197.748H1640V201.764H1639.5V205.781H1640V209.798H1639.5V213.814H1640V217.831H1639.5V221.848H1640V225.864H1639.5V229.881H1640V233.898H1639.5V237.914H1640V241.931H1639.5V245.948H1640V249.964H1639.5V253.981H1640V257.998H1639.5V262.014H1640V266.031H1639.5V270.048H1640V274.064H1639.5V278.081H1640V282.098H1639.5V286.114H1640V290.131H1639.5V294.148H1640V298.164H1639.5V302.181H1640V306.198H1639.5V310.214H1640V314.231H1639.5V318.248H1640V322.264H1639.5V326.281H1640V330.298H1639.5V334.314H1640V338.331H1639.5V342.348H1640V346.364H1639.5V350.381H1640V354.397H1639.5V358.414H1640V362.431H1639.5V366.448H1640V370.464H1639.5V374.481H1640V378.498H1639.5V382.514H1640V386.531H1639.5V390.548H1640V394.564H1639.5V398.581H1640V402.598H1639.5V406.614H1640V410.631H1639.5V414.648H1640V418.665H1639.5V422.681H1640V426.698H1639.5V430.715H1640V434.731H1639.5V438.748H1640V442.765H1639.5V446.781H1640V450.798H1639.5V454.815H1640V458.831H1639.5V462.848H1640V466.865H1639.5V470.882H1640V474.898H1639.5V478.915H1640V482.932H1639.5V486.948H1640V490.965H1639.5V494.982H1640V498.998H1639.5V503.015H1640V507.032H1639.5V511.048H1640V515.065H1639.5V519.082H1640V523.099H1639.5V527.115H1640V531.132H1639.5V535.149H1640V539.165H1639.5V543.182H1640V547.199H1639.5V551.215H1640V555.232H1639.5V559.249H1640V563.266H1639.5V567.282H1640V571.299H1639.5V575.316H1640V579.332H1639.5V583.349H1640V587.366H1639.5V591.382H1640V595.399H1639.5V599.416H1640V603.432H1639.5V607.449H1640V611.466H1639.5V615.482H1640V619.499H1639.5V623.516H1640V627.533H1639.5V631.549H1640V635.566H1639.5V639.583H1640V643.599H1639.5V647.616H1640V651.633H1639.5V655.649H1640V659.666H1639.5V663.683H1640V667.699H1639.5V671.716H1640V675.733H1639.5V679.749H1640V683.766H1639.5V687.783H1640V691.799H1639.5V695.816H1640V699.833H1639.5V703.849H1640V707.866H1639.5V711.883H1640V715.899H1639.5V719.916H1640V723.933H1639.5V727.949H1640V731.966H1639.5V735.983H1640V740H1639.5V744.016H1640V748.033H1639.5V752.05H1640V756.066H1639.5V760.083H1640V764.1H1639.5V768.116H1640V772.133H1639.5V776.15H1640V780.166H1639.5V784.183H1640V788.2H1639.5V792.216H1640V796.233H1639.5V800.25H1640V804.266H1639.5V808.283H1640V812.3H1639.5V816.317H1640V820.333H1639.5V824.35H1640V828.367H1639.5V832.383H1640V836.4H1639.5V840.417H1640V844.433H1639.5V848.45H1640V852.467H1639.5V856.483H1640V860.5H1639.5V864.517H1640V868.533H1639.5V870.331L1638.2 871.602L1638.55 871.96L1635.64 874.795L1635.29 874.438L1632.39 877.273L1632.74 877.631L1629.83 880.467L1629.48 880.109L1626.58 882.945L1626.93 883.303L1624.02 886.138L1623.68 885.781L1620.77 888.616L1621.12 888.974L1618.22 891.81L1617.87 891.452L1614.96 894.288L1615.31 894.646L1612.41 897.481L1612.06 897.123L1609.15 899.959L1609.5 900.317L1606.6 903.153L1606.25 902.795L1603.34 905.631L1603.69 905.988L1600.79 908.824L1600.44 908.466L1597.53 911.302L1597.88 911.66L1594.98 914.496L1594.63 914.138L1591.72 916.974L1592.07 917.331L1589.17 920.167L1588.82 919.809L1585.91 922.645L1586.26 923.003L1583.36 925.839L1583.01 925.481L1581.7 926.756H1579.9V927.256H1575.9V926.756H1571.89V927.256H1567.88V926.756H1563.87V927.256H1559.86V926.756H1555.85V927.256H1551.84V926.756H1547.84V927.256H1543.83V926.756H1539.82V927.256H1535.81V926.756H1531.8V927.256H1527.79V926.756H1523.79V927.256H1519.78V926.756H1515.77V927.256H1511.76V926.756H1507.75V927.256H1503.74V926.756H1499.74V927.256H1495.73V926.756H1491.72V927.256H1487.71V926.756H1483.7V927.256H1479.69V926.756H1475.68V927.256H1471.68V926.756H1467.67V927.256H1463.66V926.756H1459.65V927.256H1455.64V926.756H1451.63V927.256H1447.63V926.756H1443.62V927.256H1439.61V926.756H1435.6V927.256H1431.59V926.756H1427.58V927.256H1423.58V926.756H1419.57V927.256H1415.56V926.756H1411.55V927.256H1407.54V926.756H1403.53V927.256H1399.52V926.756H1395.52V927.256H1391.51V926.756H1387.5V927.256H1383.49V926.756H1379.48V927.256H1375.47V926.756H1371.47V927.256H1367.46V926.756H1363.45V927.256H1359.44V926.756H1355.43V927.256H1351.42V926.756H1347.42V927.256H1343.41V926.756H1339.4V927.256H1335.39V926.756H1331.38V927.256H1327.37V926.756H1323.36V927.256H1319.36V926.756H1315.35V927.256H1311.34V926.756H1307.33V927.256H1303.32V926.756H1299.31V927.256H1295.31V926.756H1291.3V927.256H1287.29V926.756H1283.28V927.256H1279.27V926.756H1275.26V927.256H1271.26V926.756H1267.25V927.256H1263.24V926.756H1259.23V927.256H1255.22V926.756H1251.21V927.256H1247.2V926.756H1243.2V927.256H1239.19V926.756H1235.18V927.256H1231.17V926.756H1227.16V927.256H1223.15V926.756H1219.15V927.256H1215.14V926.756H1211.13V927.256H1207.12V926.756H1203.11V927.256H1199.1V926.756H1195.09V927.256H1191.09V926.756H1187.08V927.256H1183.07V926.756H1179.06V927.256H1175.05V926.756H1171.04V927.256H1167.04V926.756H1163.03V927.256H1159.02V926.756H1155.01V927.256H1151V926.756H1146.99V927.256H1142.99V926.756H1138.98V927.256H1134.97V926.756H1130.96V927.256H1126.95V926.756H1122.94V927.256H1118.93V926.756H1114.93V927.256H1110.92V926.756H1106.91V927.256H1102.9V926.756H1098.89V927.256H1094.88V926.756H1090.88V927.256H1086.87V926.756H1082.86V927.256H1078.85V926.756H1074.84V927.256H1070.83V926.756H1066.83V927.256H1062.82V926.756H1058.81V927.256H1054.8V926.756H1050.79V927.256H1046.78V926.756H1042.77V927.256H1038.77V926.756H1034.76V927.256H1030.75V926.756H1026.74V927.256H1022.73V926.756H1018.72V927.256H1014.72V926.756H1010.71V927.256H1006.7V926.756H1002.69V927.256H998.682V926.756H994.674V927.256H990.665V926.756H986.657V927.256H982.649V926.756H978.64V927.256H974.632V926.756H970.623V927.256H966.615V926.756H962.606V927.256H958.598V926.756H954.59V927.256H950.581V926.756H946.573V927.256H942.564V926.756H938.556V927.256H934.547V926.756H930.539V927.256H926.531V926.756H922.522V927.256H918.514V926.756H914.505V927.256H910.497V926.756H906.489V927.256H902.48V926.756H898.472V927.256H894.463V926.756H890.455V927.256H886.446V926.756H882.438V927.256H878.43V926.756H874.421V927.256H870.413V926.756H866.404V927.256H862.396V926.756H858.387V927.256H854.379V926.756H850.371V927.256H846.362V926.756H842.354V927.256H838.345V926.756H834.337V927.256H830.328V926.756H826.32V927.256H822.312V926.756H818.303V927.256H814.295V926.756H810.286V927.256H806.278V926.756H802.27V927.256H798.261V926.756H794.253V927.256H790.244V926.756H786.236V927.256H782.227V926.756H778.219V927.256H774.211V926.756H770.202V927.256H766.194V926.756H762.185V927.256H758.177V926.756H754.168V927.256H750.16V926.756H746.152V927.256H742.143V926.756H738.135V927.256H734.126V926.756H730.118V927.256H726.109V926.756H722.101V927.256H718.093V926.756H714.084V927.256H710.076V926.756H706.067V927.256H702.059V926.756H698.051V927.256H694.042V926.756H690.034V927.256H686.025V926.756H682.017V927.256H678.008V926.756H674V927.256H669.992V926.756H665.983V927.256H661.975V926.756H657.966V927.256H653.958V926.756H649.949V927.256H645.941V926.756H641.933V927.256H637.924V926.756H633.916V927.256H629.907V926.756H625.899V927.256H621.89V926.756H617.882V927.256H613.874V926.756H609.865V927.256H605.857V926.756H601.848V927.256H597.84V926.756H593.832V927.256H589.823V926.756H585.815V927.256H581.806V926.756H577.798V927.256H573.789V926.756H569.781V927.256H565.773V926.756H561.764V927.256H557.756V926.756H553.747V927.256H549.739V926.756H545.73V927.256H541.722V926.756H537.714V927.256H533.705V926.756H529.697V927.256H525.688V926.756H521.68V927.256H517.671V926.756H513.663V927.256H509.655V926.756H505.646V927.256H501.638V926.756H497.629V927.256H493.621V926.756H489.613V927.256H485.604V926.756H481.596V927.256H477.587V926.756H473.579V927.256H469.57V926.756H465.562V927.256H461.554V926.756H457.545V927.256H453.537V926.756H449.528V927.256H445.52V926.756H441.511V927.256H437.503V926.756H433.495V927.256H429.486V926.756H425.478V927.256H421.469V926.756H417.461V927.256H413.452V926.756H409.444V927.256H405.436V926.756H401.427V927.256H397.419V926.756H393.41V927.256H389.402V926.756H385.394V927.256H381.385V926.756H377.377V927.256H373.368V926.756H369.36V927.256H365.351V926.756H361.343V927.256H357.335V926.756H353.326V927.256H349.318V926.756H345.309V927.256H341.301V926.756H337.292V927.256H333.284V926.756H329.276V927.256H325.267V926.756H321.259V927.256H317.25V926.756H313.242V927.256H309.233V926.756H305.225V927.256H301.217V926.756H297.208V927.256H293.2V926.756H289.191V927.256H285.183V926.756H281.175V927.256H277.166V926.756H273.158V927.256H269.149V926.756H265.141V927.256H261.132V926.756H257.124V927.256H253.116V926.756H249.107V927.256H245.099V926.756H241.09V927.256H237.082V926.756H233.073V927.256H229.065V926.756H225.057V927.256H221.048V926.756H217.04V927.256H213.031V926.756H209.023V927.256H205.014V926.756H201.006V927.256H196.998V926.756H192.989V927.256H188.981V926.756H184.972V927.256H180.964V926.756H176.956V927.256H172.947V926.756H168.939V927.256H164.93V926.756H160.922V927.256H156.913V926.756H152.905V927.256H148.897V926.756H144.888V927.256H140.88V926.756H136.871V927.256H132.863V926.756H128.854V927.256H124.846V926.756H120.838V927.256H116.829V926.756H112.821V927.256H108.812V926.756H107.008L105.703 925.511L105.358 925.873L102.458 923.107L102.803 922.745L99.9025 919.978L99.5574 920.34L96.657 917.574L97.0021 917.212L94.1018 914.445L93.7567 914.807L90.8564 912.041L91.2015 911.679L88.3011 908.913L87.956 909.274L85.0557 906.508L85.4008 906.146L82.5005 903.38L82.1553 903.741L79.255 900.975L79.6001 900.613L76.6998 897.847L76.3547 898.208L73.4543 895.442L73.7995 895.08L70.8991 892.314L70.554 892.676L67.6537 889.909L67.9988 889.547L65.0985 886.781L64.7533 887.143L61.853 884.376L62.1981 884.014L59.2978 881.248L58.9527 881.61L56.0524 878.843L56.3975 878.481L53.4971 875.715L53.152 876.077L50.2517 873.31L50.5968 872.948L47.6965 870.182L47.3513 870.544L44.451 867.777L44.7961 867.416L41.8958 864.649L41.5507 865.011L38.6503 862.244L38.9955 861.883L37.7002 860.647V858.866H37.2002V854.874H37.7002V850.883H37.2002V846.891H37.7002V842.9H37.2002V838.908H37.7002V834.916H37.2002V830.925H37.7002V826.933H37.2002V822.941H37.7002V818.95H37.2002V814.958H37.7002V810.966H37.2002V806.975H37.7002V802.983H37.2002V798.992H37.7002V795H37.2002V791.008H37.7002V787.017H37.2002V783.025H37.7002V779.033H37.2002V775.042H37.7002V771.05H37.2002V767.058H37.7002V763.067H37.2002V759.075H37.7002V755.083H37.2002V751.092H37.7002V747.1H37.2002V743.109H37.7002V739.117H37.2002V735.125H37.7002V731.134H37.2002V727.142H37.7002V723.15H37.2002V719.159H37.7002V715.167H37.2002V711.175H37.7002V707.184H37.2002V703.192H37.7002V699.201H37.2002V695.209H37.7002V691.217H37.2002V687.226H37.7002V683.234H37.2002V679.242H37.7002V675.251H37.2002V671.259H37.7002V667.267H37.2002V663.276H37.7002V659.284H37.2002V655.292H37.7002V651.301H37.2002V647.309H37.7002V643.318H37.2002V639.326H37.7002V635.334H37.2002V631.343H37.7002V627.351H37.2002V623.359H37.7002V619.368H37.2002V615.376H37.7002V611.384H37.2002V607.393H37.7002V603.401H37.2002V599.41H37.7002V595.418H37.2002V591.426H37.7002V587.435H37.2002V583.443H37.7002V579.451H37.2002V575.46H37.7002V571.468H37.2002V567.477H37.7002V563.485H37.2002V559.493H37.7002V555.502H37.2002V551.51H37.7002V547.519H37.2002V543.527H37.7002V539.535H37.2002V535.544H37.7002V531.552H37.2002V527.561H37.7002V523.569H37.2002V519.577H37.7002V515.586H37.2002V511.594H37.7002V507.602H37.2002V503.611H37.7002V499.619H37.2002V495.628H37.7002V491.636H37.2002V487.644H37.7002V483.653H37.2002V479.661H37.7002V475.67H37.2002V471.678H37.7002V467.686H37.2002V463.695H37.7002V459.703H37.2002V455.712H37.7002V451.72H37.2002V447.728H37.7002V443.737H37.2002V439.745H37.7002V435.754H37.2002V431.762H37.7002V427.77H37.2002V423.779H37.7002V419.787H37.2002V415.796H37.7002V411.804H37.2002V407.812H37.7002V403.821H37.2002V399.829H37.7002V395.837H37.2002V391.846H37.7002V387.854H37.2002V383.863H37.7002V379.871H37.2002V375.879H37.7002V371.888H37.2002V367.896H37.7002V363.905H37.2002V359.913H37.7002V355.921H37.2002V351.93H37.7002V347.938H37.2002V343.947H37.7002V339.955H37.2002V335.963H37.7002V331.972H37.2002V327.98H37.7002V323.989H37.2002V319.997H37.7002V316.005H37.2002V312.014H37.7002V308.022H37.2002V304.03H37.7002V300.039H37.2002V296.047H37.7002V292.056H37.2002V288.064H37.7002V284.072H37.2002V280.081H37.7002V276.089H37.2002V272.097H37.7002V268.106H37.2002V264.114H37.7002V260.123H37.2002V256.131H37.7002V252.139H37.2002V248.148H37.7002V244.156H37.2002V240.164H37.7002V236.173H37.2002V232.181H37.7002V228.19H37.2002V224.198H37.7002V220.206H37.2002V216.215H37.7002V212.223H37.2002V208.231H37.7002V204.24H37.2002V200.248H37.7002V196.257H37.2002V192.265H37.7002V188.273H37.2002V184.282H37.7002V180.29H37.2002V176.299H37.7002V172.307H37.2002V168.315H37.7002V164.324H37.2002V160.332H37.7002V156.34H37.2002V152.349H37.7002V148.357H37.2002V144.366H37.7002V140.374H37.2002V136.382H37.7002V132.391H37.2002V128.399H37.7002V124.407H37.2002V120.416H37.7002V116.424H37.2002V112.433H37.7002V108.441H37.2002V104.449H37.7002V100.458H37.2002V96.4661H37.7002V92.4745H37.2002V88.4829H37.7002V84.4912H37.2002V80.4996H37.7002V76.508H37.2002V72.5164H37.7002V70.749L39.0677 69.5648L38.7404 69.1868L41.8209 66.5194L42.1483 66.8974L45.2288 64.2299L44.9014 63.8519L47.982 61.1845L48.3093 61.5624L51.3898 58.895L51.0625 58.517L54.143 55.8495L54.4703 56.2275L57.5508 53.5601L57.2235 53.1821L60.304 50.5146L60.6313 50.8926L63.7118 48.2252L63.3845 47.8472L66.465 45.1797L66.7923 45.5577L69.8728 42.8902L69.5455 42.5122L72.626 39.8448L72.9533 40.2228L76.0338 37.5553L75.7065 37.1773L78.787 34.5099L79.1143 34.8879L82.1948 32.2204L81.8675 31.8424L84.948 29.175L85.2753 29.5529L88.3558 26.8855L88.0285 26.5075L91.109 23.84L91.4363 24.218L94.5168 21.5506L94.1895 21.1726L97.27 18.5051L97.5973 18.8831L98.9966 17.6714H100.811V17.1714H104.807V17.6714H108.803V17.1714H112.799V17.6714H116.795V17.1714H120.791V17.6714H124.787V17.1714H128.783V17.6714H132.779V17.1714H136.775V17.6714H140.771V17.1714H144.767V17.6714H148.763V17.1714H152.759V17.6714H156.755V17.1714H160.751V17.6714H164.747V17.1714H168.743V17.6714H172.739V17.1714H176.735V17.6714H180.731V17.1714H184.727V17.6714H188.723V17.1714H192.719V17.6714H196.715V17.1714H200.711V17.6714H204.707V17.1714H208.703V17.6714H212.699V17.1714H216.695V17.6714H220.69V17.1714H224.686V17.6714H228.682V17.1714H232.678V17.6714H236.674V17.1714H240.67V17.6714H244.666V17.1714H248.662V17.6714H252.658V17.1714H256.654V17.6714H260.65V17.1714H264.646V17.6714H268.642V17.1714H272.638V17.6714H276.634V17.1714H280.63V17.6714H284.626V17.1714H288.622V17.6714H292.618V17.1714H296.614V17.6714H300.61V17.1714H304.606V17.6714H308.602V17.1714H312.598V17.6714H316.594V17.1714H320.59V17.6714H324.586V17.1714H328.582V17.6714H332.578V17.1714H336.574V17.6714H340.57V17.1714H344.566V17.6714H348.562V17.1714H352.557V17.6714H356.553V17.1714H360.549V17.6714H364.545V17.1714H368.541V17.6714H372.537V17.1714H376.533V17.6714H380.529V17.1714H384.525V17.6714H388.521V17.1714H392.517V17.6714H396.513V17.1714H400.509V17.6714H404.505V17.1714H408.501V17.6714H412.497V17.1714H416.493V17.6714H420.489V17.1714H424.485V17.6714H428.481V17.1714H432.477V17.6714H436.473V17.1714H440.469V17.6714H444.465V17.1714H448.461V17.6714H452.457V17.1714H456.453V17.6714H460.449V17.1714H464.445V17.6714H468.441V17.1714H472.437V17.6714H476.433V17.1714H480.429V17.6714H484.425V17.1714H488.421V17.6714H492.417V17.1714H496.412V17.6714H500.408V17.1714H504.404V17.6714H508.4V17.1714H512.396V17.6714H516.392V17.1714H520.388V17.6714H524.384V17.1714H528.38V17.6714H532.376V17.1714H536.372V17.6714H540.368V17.1714H544.364V17.6714H548.36V17.1714H552.356V17.6714H556.352V17.1714H560.348V17.6714H564.344V17.1714H568.34V17.6714H572.336V17.1714H576.332V17.6714H580.328V17.1714H584.324V17.6714H588.32V17.1714H592.316V17.6714H596.312V17.1714H600.308V17.6714H604.304V17.1714H608.3V17.6714H612.296V17.1714H616.292V17.6714H620.288V17.1714H624.284V17.6714H628.28V17.1714H632.276V17.6714H636.272V17.1714H640.268V17.6714H644.264V17.1714H648.259V17.6714H652.255V17.1714H656.251V17.6714H660.247V17.1714H664.243V17.6714H668.239V17.1714H672.235V17.6714H676.231V17.1714H680.227V17.6714H684.223V17.1714H688.219V17.6714H692.215V17.1714H696.211V17.6714H700.207V17.1714H704.203V17.6714H708.199V17.1714H712.195V17.6714H716.191V17.1714H720.187V17.6714H724.183V17.1714H728.179V17.6714H732.175V17.1714H736.171V17.6714H740.167V17.1714H744.163V17.6714H748.159V17.1714H752.155V17.6714H756.151V17.1714H760.147V17.6714H764.143V17.1714H768.139V17.6714H772.135V17.1714H776.131V17.6714H780.127V17.1714H784.122V17.6714H788.119V17.1714H792.115V17.6714H796.11V17.1714H800.106V17.6714H804.102V17.1714H808.098V17.6714H812.094V17.1714H816.09V17.6714H820.086V17.1714H824.082V17.6714H828.078V17.1714H832.074V17.6714H836.07V17.1714H840.066V17.6714H844.062V17.1714H848.058V17.6714H852.054V17.1714H856.05V17.6714H860.046V17.1714H864.042V17.6714H868.038V17.1714H872.034V17.6714H876.03V17.1714H880.026V17.6714H884.022V17.1714H888.018V17.6714H892.014V17.1714H896.01V17.6714H900.006V17.1714H904.002V17.6714H907.998V17.1714H911.994V17.6714H915.99V17.1714H919.986V17.6714H923.982V17.1714H927.978V17.6714H931.974V17.1714H935.969V17.6714H939.965V17.1714H943.961V17.6714H947.957V17.1714H951.953V17.6714H955.949V17.1714H959.945V17.6714H963.941V17.1714H967.937V17.6714H971.933V17.1714H975.929V17.6714H979.925V17.1714H983.921V17.6714H987.917V17.1714H991.913V17.6714H995.909V17.1714H999.905V17.6714H1003.9V17.1714H1007.9V17.6714H1011.89V17.1714H1015.89V17.6714H1019.88V17.1714H1023.88V17.6714H1027.88V17.1714H1031.87V17.6714H1035.87V17.1714H1039.86V17.6714H1043.86V17.1714H1047.86V17.6714H1051.85V17.1714H1055.85V17.6714H1059.84V17.1714H1063.84V17.6714H1067.84V17.1714H1071.83V17.6714H1075.83V17.1714H1079.82V17.6714H1083.82V17.1714H1087.82V17.6714H1091.81V17.1714H1095.81V17.6714H1099.8V17.1714H1103.8V17.6714H1107.8V17.1714H1111.79V17.6714H1115.79V17.1714H1119.78V17.6714H1123.78V17.1714H1127.78V17.6714H1131.77V17.1714H1135.77V17.6714H1139.76V17.1714H1143.76V17.6714H1147.76V17.1714H1151.75V17.6714H1155.75V17.1714H1159.74V17.6714H1163.74V17.1714H1167.74V17.6714H1171.73V17.1714H1175.73V17.6714H1179.72V17.1714H1183.72V17.6714H1187.72V17.1714H1191.71V17.6714H1195.71V17.1714H1199.7V17.6714H1203.7V17.1714H1207.7V17.6714H1211.69V17.1714H1215.69V17.6714H1219.68V17.1714H1223.68V17.6714H1227.68V17.1714H1231.67V17.6714H1235.67V17.1714H1239.66V17.6714H1243.66V17.1714H1247.66V17.6714H1251.65V17.1714H1255.65V17.6714H1259.64V17.1714H1263.64V17.6714H1267.64V17.1714H1271.63V17.6714H1275.63V17.1714H1279.62V17.6714H1283.62V17.1714H1287.62V17.6714H1291.61V17.1714H1295.61V17.6714H1299.6V17.1714H1303.6V17.6714H1307.6V17.1714H1311.59V17.6714H1315.59V17.1714H1319.58V17.6714H1323.58V17.1714H1327.58V17.6714H1331.57V17.1714H1335.57V17.6714H1339.56V17.1714H1343.56V17.6714H1347.56V17.1714H1351.55V17.6714H1355.55V17.1714H1359.54V17.6714H1363.54V17.1714H1367.54V17.6714H1371.53V17.1714H1375.53V17.6714H1379.52V17.1714H1383.52V17.6714H1387.52V17.1714H1391.51V17.6714H1395.51V17.1714H1399.5V17.6714H1403.5V17.1714H1407.5V17.6714H1411.49V17.1714H1415.49V17.6714H1419.48V17.1714H1423.48V17.6714H1427.48V17.1714H1431.47V17.6714H1435.47V17.1714H1439.46V17.6714H1443.46V17.1714H1447.46V17.6714H1451.45V17.1714H1455.45V17.6714H1459.44V17.1714H1463.44V17.6714H1467.44V17.1714H1471.43V17.6714H1475.43V17.1714H1479.42V17.6714H1483.42V17.1714H1487.42V17.6714H1491.41V17.1714H1495.41V17.6714H1499.4V17.1714H1503.4V17.6714H1507.4V17.1714H1511.39V17.6714H1515.39V17.1714H1519.38V17.6714H1523.38V17.1714H1527.38V17.6714H1531.37V17.1714H1535.37V17.6714H1539.36V17.1714H1543.36V17.6714H1547.36V17.1714H1551.35V17.6714H1555.35V17.1714H1559.34V17.6714H1563.34V17.1714H1567.34V17.6714H1571.33V17.1714H1575.33V17.6714H1577.13L1578.41 18.8579L1578.75 18.4911L1581.6 21.1305L1581.26 21.4973L1584.11 24.1367L1584.45 23.7699L1587.3 26.4093L1586.96 26.7761L1589.81 29.4155L1590.15 29.0488L1592.99 31.6882L1592.65 32.0549L1595.5 34.6943L1595.84 34.3276L1598.69 36.967L1598.35 37.3338L1601.2 39.9732L1601.54 39.6064L1604.39 42.2458L1604.05 42.6126L1606.9 45.252L1607.24 44.8852L1610.09 47.5246L1609.75 47.8914L1612.6 50.5308L1612.94 50.164L1615.79 52.8034L1615.45 53.1702L1618.29 55.8096L1618.63 55.4428L1621.48 58.0822L1621.14 58.449L1623.99 61.0885L1624.33 60.7217L1627.18 63.3611L1626.84 63.7279L1629.69 66.3673L1630.03 66.0005L1632.88 68.6399L1632.54 69.0067L1635.39 71.6461L1635.73 71.2793L1638.58 73.9187L1638.24 74.2855L1639.5 75.4568V77.2478Z" fill="#043379" stroke="#1C8394" stroke-dasharray="4 4"/>
    <path d="M1635.04 701.32V700.82H1634.54V701.32H1635.04ZM1635.04 876.473L1635.39 876.83L1635.54 876.683V876.473H1635.04ZM1636.04 701.32H1636.54V700.82H1636.04V701.32ZM1636.04 876.893L1636.39 877.25L1636.54 877.103V876.893H1636.04ZM1635.89 877.04L1636.23 877.398L1636.23 877.398L1635.89 877.04ZM1577.93 933.745L1577.58 934.094L1577.93 934.452L1578.28 934.102L1577.93 933.745ZM1577.23 933.03L1576.88 932.672L1576.53 933.022L1576.88 933.379L1577.23 933.03ZM94.5508 19.0852H94.0508V19.5852H94.5508V19.0852ZM666.518 19.0852V19.5852H667.018V19.0852H666.518ZM94.5508 18.0852V17.5852H94.0508V18.0852H94.5508ZM666.518 18.0852H667.018V17.5852H666.518V18.0852ZM668.028 933.887H667.528V934.387H668.028V933.887ZM1265.16 933.887V934.387H1265.66V933.887H1265.16ZM668.028 932.887V932.387H667.528V932.887H668.028ZM1265.16 932.887H1265.66V932.387H1265.16V932.887ZM1571.07 18.9516L1570.71 18.6114L1570.37 18.9778L1570.73 19.318L1571.07 18.9516ZM1633.43 76.8592H1633.93V76.6412L1633.77 76.4928L1633.43 76.8592ZM1571.75 18.2188L1572.09 17.8524L1571.73 17.5122L1571.39 17.8786L1571.75 18.2188ZM1634.27 76.2748L1633.93 76.6412L1633.93 76.6412L1634.27 76.2748ZM1634.43 76.4231H1634.93V76.2051L1634.77 76.0567L1634.43 76.4231ZM1634.43 235.658V236.158H1634.93V235.658H1634.43ZM1633.43 235.658H1632.93V236.158H1633.43V235.658ZM282.164 933.887H281.664V934.387H282.164V933.887ZM556.243 933.887V934.387H556.743V933.887H556.243ZM282.164 932.887V932.387H281.664V932.887H282.164ZM556.243 932.887H556.743V932.387H556.243V932.887ZM38.7031 279.858V279.358H38.2031V279.858H38.7031ZM38.7031 615.8H38.2031V616.3H38.7031V615.8ZM39.7031 279.858H40.2031V279.358H39.7031V279.858ZM39.7031 615.8V616.3H40.2031V615.8H39.7031ZM1634.54 701.32V703.311H1635.54V701.32H1634.54ZM1634.54 707.292V711.272H1635.54V707.292H1634.54ZM1634.54 715.253V719.234H1635.54V715.253H1634.54ZM1634.54 723.214V727.195H1635.54V723.214H1634.54ZM1634.54 731.176V735.157H1635.54V731.176H1634.54ZM1634.54 739.137V743.118H1635.54V739.137H1634.54ZM1634.54 747.099V751.08H1635.54V747.099H1634.54ZM1634.54 755.06V759.041H1635.54V755.06H1634.54ZM1634.54 763.022V767.003H1635.54V763.022H1634.54ZM1634.54 770.983V774.964H1635.54V770.983H1634.54ZM1634.54 778.945V782.925H1635.54V778.945H1634.54ZM1634.54 786.906V790.887H1635.54V786.906H1634.54ZM1634.54 794.868V798.848H1635.54V794.868H1634.54ZM1634.54 802.829V806.81H1635.54V802.829H1634.54ZM1634.54 810.791V814.771H1635.54V810.791H1634.54ZM1634.54 818.752V822.733H1635.54V818.752H1634.54ZM1634.54 826.713V830.694H1635.54V826.713H1634.54ZM1634.54 834.675V838.656H1635.54V834.675H1634.54ZM1634.54 842.636V846.617H1635.54V842.636H1634.54ZM1634.54 850.598V854.579H1635.54V850.598H1634.54ZM1634.54 858.559V862.54H1635.54V858.559H1634.54ZM1634.54 866.521V870.501H1635.54V866.521H1634.54ZM1634.54 874.482V876.473H1635.54V874.482H1634.54ZM1634.69 876.115L1633.24 877.529L1633.94 878.244L1635.39 876.83L1634.69 876.115ZM1630.35 880.357L1627.46 883.185L1628.16 883.9L1631.05 881.072L1630.35 880.357ZM1624.57 886.013L1621.68 888.841L1622.38 889.555L1625.27 886.727L1624.57 886.013ZM1618.79 891.668L1615.9 894.496L1616.6 895.211L1619.49 892.383L1618.79 891.668ZM1613.01 897.324L1610.12 900.152L1610.82 900.867L1613.71 898.039L1613.01 897.324ZM1607.23 902.98L1604.34 905.808L1605.04 906.522L1607.93 903.695L1607.23 902.98ZM1601.45 908.636L1598.56 911.463L1599.26 912.178L1602.15 909.35L1601.45 908.636ZM1595.67 914.291L1592.78 917.119L1593.48 917.834L1596.37 915.006L1595.67 914.291ZM1589.89 919.947L1587 922.775L1587.7 923.49L1590.59 920.662L1589.89 919.947ZM1584.11 925.603L1581.22 928.431L1581.92 929.145L1584.81 926.317L1584.11 925.603ZM1578.33 931.258L1576.88 932.672L1577.58 933.387L1579.03 931.973L1578.33 931.258ZM1576.88 933.379L1577.05 933.558L1577.77 932.859L1577.59 932.68L1576.88 933.379ZM1577.4 933.916L1577.58 934.094L1578.29 933.395L1578.12 933.216L1577.4 933.916ZM1578.28 934.102L1579.73 932.684L1579.03 931.97L1577.58 933.387L1578.28 934.102ZM1582.63 929.849L1585.53 927.014L1584.83 926.299L1581.93 929.134L1582.63 929.849ZM1588.42 924.179L1591.32 921.343L1590.62 920.629L1587.73 923.464L1588.42 924.179ZM1594.22 918.508L1597.12 915.673L1596.42 914.958L1593.52 917.793L1594.22 918.508ZM1600.02 912.838L1602.91 910.003L1602.21 909.288L1599.32 912.123L1600.02 912.838ZM1605.81 907.167L1608.71 904.332L1608.01 903.617L1605.11 906.453L1605.81 907.167ZM1611.61 901.497L1614.5 898.662L1613.8 897.947L1610.91 900.782L1611.61 901.497ZM1617.4 895.826L1620.3 892.991L1619.6 892.277L1616.7 895.112L1617.4 895.826ZM1623.2 890.156L1626.09 887.321L1625.39 886.606L1622.5 889.441L1623.2 890.156ZM1628.99 884.486L1631.89 881.65L1631.19 880.936L1628.29 883.771L1628.99 884.486ZM1634.79 878.815L1636.23 877.398L1635.54 876.683L1634.09 878.1L1634.79 878.815ZM1636.23 877.398L1636.27 877.361L1635.57 876.646L1635.54 876.683L1636.23 877.398ZM1636.35 877.287L1636.39 877.25L1635.69 876.536L1635.65 876.573L1636.35 877.287ZM1636.54 876.893V876.841H1635.54V876.893H1636.54ZM1636.54 876.735V876.683H1635.54V876.735H1636.54ZM1636.54 876.683V874.69H1635.54V876.683H1636.54ZM1636.54 870.705V866.719H1635.54V870.705H1636.54ZM1636.54 862.734V858.748H1635.54V862.734H1636.54ZM1636.54 854.763V850.777H1635.54V854.763H1636.54ZM1636.54 846.792V842.806H1635.54V846.792H1636.54ZM1636.54 838.82V834.835H1635.54V838.82H1636.54ZM1636.54 830.849V826.864H1635.54V830.849H1636.54ZM1636.54 822.878V818.893H1635.54V822.878H1636.54ZM1636.54 814.907V810.922H1635.54V814.907H1636.54ZM1636.54 806.936V802.951H1635.54V806.936H1636.54ZM1636.54 798.965V794.98H1635.54V798.965H1636.54ZM1636.54 790.994V787.009H1635.54V790.994H1636.54ZM1636.54 783.023V779.038H1635.54V783.023H1636.54ZM1636.54 775.052V771.067H1635.54V775.052H1636.54ZM1636.54 767.081V763.096H1635.54V767.081H1636.54ZM1636.54 759.11V755.125H1635.54V759.11H1636.54ZM1636.54 751.139V747.154H1635.54V751.139H1636.54ZM1636.54 743.168V739.183H1635.54V743.168H1636.54ZM1636.54 735.197V731.212H1635.54V735.197H1636.54ZM1636.54 727.226V723.241H1635.54V727.226H1636.54ZM1636.54 719.255V715.27H1635.54V719.255H1636.54ZM1636.54 711.284V707.299H1635.54V711.284H1636.54ZM1636.54 703.313V701.32H1635.54V703.313H1636.54ZM1636.04 700.82H1635.79V701.82H1636.04V700.82ZM1635.29 700.82H1635.04V701.82H1635.29V700.82ZM95.0508 19.0852V18.8352H94.0508V19.0852H95.0508ZM95.0508 18.3352V18.0852H94.0508V18.3352H95.0508ZM94.5508 18.5852H96.5648V17.5852H94.5508V18.5852ZM100.593 18.5852H104.621V17.5852H100.593V18.5852ZM108.649 18.5852H112.677V17.5852H108.649V18.5852ZM116.704 18.5852H120.732V17.5852H116.704V18.5852ZM124.76 18.5852H128.788V17.5852H124.76V18.5852ZM132.816 18.5852H136.844V17.5852H132.816V18.5852ZM140.872 18.5852H144.9V17.5852H140.872V18.5852ZM148.928 18.5852H152.956V17.5852H148.928V18.5852ZM156.984 18.5852H161.012V17.5852H156.984V18.5852ZM165.04 18.5852H169.068V17.5852H165.04V18.5852ZM173.096 18.5852H177.124V17.5852H173.096V18.5852ZM181.152 18.5852H185.179V17.5852H181.152V18.5852ZM189.207 18.5852H193.235V17.5852H189.207V18.5852ZM197.263 18.5852H201.291V17.5852H197.263V18.5852ZM205.319 18.5852H209.347V17.5852H205.319V18.5852ZM213.375 18.5852H217.403V17.5852H213.375V18.5852ZM221.431 18.5852H225.459V17.5852H221.431V18.5852ZM229.487 18.5852H233.515V17.5852H229.487V18.5852ZM237.543 18.5852H241.571V17.5852H237.543V18.5852ZM245.599 18.5852H249.626V17.5852H245.599V18.5852ZM253.654 18.5852H257.682V17.5852H253.654V18.5852ZM261.71 18.5852H265.738V17.5852H261.71V18.5852ZM269.766 18.5852H273.794V17.5852H269.766V18.5852ZM277.822 18.5852H281.85V17.5852H277.822V18.5852ZM285.878 18.5852H289.906V17.5852H285.878V18.5852ZM293.934 18.5852H297.962V17.5852H293.934V18.5852ZM301.99 18.5852H306.018V17.5852H301.99V18.5852ZM310.046 18.5852H314.073V17.5852H310.046V18.5852ZM318.101 18.5852H322.129V17.5852H318.101V18.5852ZM326.157 18.5852H330.185V17.5852H326.157V18.5852ZM334.213 18.5852H338.241V17.5852H334.213V18.5852ZM342.269 18.5852H346.297V17.5852H342.269V18.5852ZM350.325 18.5852H354.353V17.5852H350.325V18.5852ZM358.381 18.5852H362.409V17.5852H358.381V18.5852ZM366.437 18.5852H370.465V17.5852H366.437V18.5852ZM374.492 18.5852H378.52V17.5852H374.492V18.5852ZM382.548 18.5852H386.576V17.5852H382.548V18.5852ZM390.604 18.5852H394.632V17.5852H390.604V18.5852ZM398.66 18.5852H402.688V17.5852H398.66V18.5852ZM406.716 18.5852H410.744V17.5852H406.716V18.5852ZM414.772 18.5852H418.8V17.5852H414.772V18.5852ZM422.828 18.5852H426.855V17.5852H422.828V18.5852ZM430.883 18.5852H434.911V17.5852H430.883V18.5852ZM438.939 18.5852H442.967V17.5852H438.939V18.5852ZM446.995 18.5852H451.023V17.5852H446.995V18.5852ZM455.051 18.5852H459.079V17.5852H455.051V18.5852ZM463.107 18.5852H467.135V17.5852H463.107V18.5852ZM471.163 18.5852H475.191V17.5852H471.163V18.5852ZM479.218 18.5852H483.246V17.5852H479.218V18.5852ZM487.274 18.5852H491.302V17.5852H487.274V18.5852ZM495.33 18.5852H499.358V17.5852H495.33V18.5852ZM503.386 18.5852H507.414V17.5852H503.386V18.5852ZM511.442 18.5852H515.47V17.5852H511.442V18.5852ZM519.498 18.5852H523.526V17.5852H519.498V18.5852ZM527.554 18.5852H531.582V17.5852H527.554V18.5852ZM535.609 18.5852H539.637V17.5852H535.609V18.5852ZM543.665 18.5852H547.693V17.5852H543.665V18.5852ZM551.721 18.5852H555.749V17.5852H551.721V18.5852ZM559.777 18.5852H563.805V17.5852H559.777V18.5852ZM567.833 18.5852H571.861V17.5852H567.833V18.5852ZM575.889 18.5852H579.917V17.5852H575.889V18.5852ZM583.945 18.5852H587.972V17.5852H583.945V18.5852ZM592 18.5852H596.028V17.5852H592V18.5852ZM600.056 18.5852H604.084V17.5852H600.056V18.5852ZM608.112 18.5852H612.14V17.5852H608.112V18.5852ZM616.168 18.5852H620.196V17.5852H616.168V18.5852ZM624.224 18.5852H628.252V17.5852H624.224V18.5852ZM632.28 18.5852H636.308V17.5852H632.28V18.5852ZM640.336 18.5852H644.364V17.5852H640.336V18.5852ZM648.392 18.5852H652.42V17.5852H648.392V18.5852ZM656.447 18.5852H660.475V17.5852H656.447V18.5852ZM664.503 18.5852H666.518V17.5852H664.503V18.5852ZM666.018 18.0852V18.3352H667.018V18.0852H666.018ZM666.018 18.8352V19.0852H667.018V18.8352H666.018ZM666.518 18.5852H664.504V19.5852H666.518V18.5852ZM660.476 18.5852H656.448V19.5852H660.476V18.5852ZM652.42 18.5852H648.392V19.5852H652.42V18.5852ZM644.364 18.5852H640.336V19.5852H644.364V18.5852ZM636.308 18.5852H632.281V19.5852H636.308V18.5852ZM628.253 18.5852H624.225V19.5852H628.253V18.5852ZM620.197 18.5852H616.169V19.5852H620.197V18.5852ZM612.141 18.5852H608.113V19.5852H612.141V18.5852ZM604.085 18.5852H600.057V19.5852H604.085V18.5852ZM596.029 18.5852H592.001V19.5852H596.029V18.5852ZM587.973 18.5852H583.945V19.5852H587.973V18.5852ZM579.917 18.5852H575.889V19.5852H579.917V18.5852ZM571.861 18.5852H567.834V19.5852H571.861V18.5852ZM563.806 18.5852H559.778V19.5852H563.806V18.5852ZM555.75 18.5852H551.722V19.5852H555.75V18.5852ZM547.694 18.5852H543.666V19.5852H547.694V18.5852ZM539.638 18.5852H535.61V19.5852H539.638V18.5852ZM531.582 18.5852H527.554V19.5852H531.582V18.5852ZM523.526 18.5852H519.498V19.5852H523.526V18.5852ZM515.47 18.5852H511.442V19.5852H515.47V18.5852ZM507.414 18.5852H503.386V19.5852H507.414V18.5852ZM499.359 18.5852H495.331V19.5852H499.359V18.5852ZM491.303 18.5852H487.275V19.5852H491.303V18.5852ZM483.247 18.5852H479.219V19.5852H483.247V18.5852ZM475.191 18.5852H471.163V19.5852H475.191V18.5852ZM467.135 18.5852H463.107V19.5852H467.135V18.5852ZM459.079 18.5852H455.051V19.5852H459.079V18.5852ZM451.023 18.5852H446.995V19.5852H451.023V18.5852ZM442.967 18.5852H438.939V19.5852H442.967V18.5852ZM434.912 18.5852H430.884V19.5852H434.912V18.5852ZM426.856 18.5852H422.828V19.5852H426.856V18.5852ZM418.8 18.5852H414.772V19.5852H418.8V18.5852ZM410.744 18.5852H406.716V19.5852H410.744V18.5852ZM402.688 18.5852H398.66V19.5852H402.688V18.5852ZM394.632 18.5852H390.604V19.5852H394.632V18.5852ZM386.576 18.5852H382.548V19.5852H386.576V18.5852ZM378.521 18.5852H374.493V19.5852H378.521V18.5852ZM370.465 18.5852H366.437V19.5852H370.465V18.5852ZM362.409 18.5852H358.381V19.5852H362.409V18.5852ZM354.353 18.5852H350.325V19.5852H354.353V18.5852ZM346.297 18.5852H342.269V19.5852H346.297V18.5852ZM338.241 18.5852H334.213V19.5852H338.241V18.5852ZM330.185 18.5852H326.157V19.5852H330.185V18.5852ZM322.13 18.5852H318.102V19.5852H322.13V18.5852ZM314.074 18.5852H310.046V19.5852H314.074V18.5852ZM306.018 18.5852H301.99V19.5852H306.018V18.5852ZM297.962 18.5852H293.934V19.5852H297.962V18.5852ZM289.906 18.5852H285.878V19.5852H289.906V18.5852ZM281.85 18.5852H277.822V19.5852H281.85V18.5852ZM273.794 18.5852H269.767V19.5852H273.794V18.5852ZM265.739 18.5852H261.711V19.5852H265.739V18.5852ZM257.683 18.5852H253.655V19.5852H257.683V18.5852ZM249.627 18.5852H245.599V19.5852H249.627V18.5852ZM241.571 18.5852H237.543V19.5852H241.571V18.5852ZM233.515 18.5852H229.487V19.5852H233.515V18.5852ZM225.459 18.5852H221.431V19.5852H225.459V18.5852ZM217.404 18.5852H213.376V19.5852H217.404V18.5852ZM209.348 18.5852H205.32V19.5852H209.348V18.5852ZM201.292 18.5852H197.264V19.5852H201.292V18.5852ZM193.236 18.5852H189.208V19.5852H193.236V18.5852ZM185.18 18.5852H181.152V19.5852H185.18V18.5852ZM177.124 18.5852H173.096V19.5852H177.124V18.5852ZM169.068 18.5852H165.041V19.5852H169.068V18.5852ZM161.013 18.5852H156.985V19.5852H161.013V18.5852ZM152.957 18.5852H148.929V19.5852H152.957V18.5852ZM144.901 18.5852H140.873V19.5852H144.901V18.5852ZM136.845 18.5852H132.817V19.5852H136.845V18.5852ZM128.789 18.5852H124.761V19.5852H128.789V18.5852ZM120.733 18.5852H116.705V19.5852H120.733V18.5852ZM112.677 18.5852H108.649V19.5852H112.677V18.5852ZM104.621 18.5852H100.593V19.5852H104.621V18.5852ZM96.5654 18.5852H94.5508V19.5852H96.5654V18.5852ZM668.528 933.887V933.637H667.528V933.887H668.528ZM668.528 933.137V932.887H667.528V933.137H668.528ZM668.028 933.387H670.018V932.387H668.028V933.387ZM673.999 933.387H677.98V932.387H673.999V933.387ZM681.961 933.387H685.942V932.387H681.961V933.387ZM689.923 933.387H693.904V932.387H689.923V933.387ZM697.884 933.387H701.865V932.387H697.884V933.387ZM705.846 933.387H709.827V932.387H705.846V933.387ZM713.808 933.387H717.789V932.387H713.808V933.387ZM721.77 933.387H725.751V932.387H721.77V933.387ZM729.732 933.387H733.712V932.387H729.732V933.387ZM737.693 933.387H741.674V932.387H737.693V933.387ZM745.655 933.387H749.636V932.387H745.655V933.387ZM753.617 933.387H757.598V932.387H753.617V933.387ZM761.579 933.387H765.56V932.387H761.579V933.387ZM769.54 933.387H773.521V932.387H769.54V933.387ZM777.502 933.387H781.483V932.387H777.502V933.387ZM785.464 933.387H789.445V932.387H785.464V933.387ZM793.426 933.387H797.407V932.387H793.426V933.387ZM801.388 933.387H805.368V932.387H801.388V933.387ZM809.349 933.387H813.33V932.387H809.349V933.387ZM817.311 933.387H821.292V932.387H817.311V933.387ZM825.273 933.387H829.254V932.387H825.273V933.387ZM833.235 933.387H837.215V932.387H833.235V933.387ZM841.196 933.387H845.177V932.387H841.196V933.387ZM849.158 933.387H853.139V932.387H849.158V933.387ZM857.12 933.387H861.101V932.387H857.12V933.387ZM865.082 933.387H869.062V932.387H865.082V933.387ZM873.043 933.387H877.024V932.387H873.043V933.387ZM881.005 933.387H884.986V932.387H881.005V933.387ZM888.967 933.387H892.948V932.387H888.967V933.387ZM896.929 933.387H900.91V932.387H896.929V933.387ZM904.89 933.387H908.871V932.387H904.89V933.387ZM912.852 933.387H916.833V932.387H912.852V933.387ZM920.814 933.387H924.795V932.387H920.814V933.387ZM928.776 933.387H932.757V932.387H928.776V933.387ZM936.738 933.387H940.718V932.387H936.738V933.387ZM944.699 933.387H948.68V932.387H944.699V933.387ZM952.661 933.387H956.642V932.387H952.661V933.387ZM960.623 933.387H964.604V932.387H960.623V933.387ZM968.585 933.387H972.566V932.387H968.585V933.387ZM976.546 933.387H980.527V932.387H976.546V933.387ZM984.508 933.387H988.489V932.387H984.508V933.387ZM992.47 933.387H996.451V932.387H992.47V933.387ZM1000.43 933.387H1004.41V932.387H1000.43V933.387ZM1008.39 933.387H1012.37V932.387H1008.39V933.387ZM1016.36 933.387H1020.34V932.387H1016.36V933.387ZM1024.32 933.387H1028.3V932.387H1024.32V933.387ZM1032.28 933.387H1036.26V932.387H1032.28V933.387ZM1040.24 933.387H1044.22V932.387H1040.24V933.387ZM1048.2 933.387H1052.18V932.387H1048.2V933.387ZM1056.16 933.387H1060.15V932.387H1056.16V933.387ZM1064.13 933.387H1068.11V932.387H1064.13V933.387ZM1072.09 933.387H1076.07V932.387H1072.09V933.387ZM1080.05 933.387H1084.03V932.387H1080.05V933.387ZM1088.01 933.387H1091.99V932.387H1088.01V933.387ZM1095.97 933.387H1099.95V932.387H1095.97V933.387ZM1103.94 933.387H1107.92V932.387H1103.94V933.387ZM1111.9 933.387H1115.88V932.387H1111.9V933.387ZM1119.86 933.387H1123.84V932.387H1119.86V933.387ZM1127.82 933.387H1131.8V932.387H1127.82V933.387ZM1135.78 933.387H1139.76V932.387H1135.78V933.387ZM1143.74 933.387H1147.73V932.387H1143.74V933.387ZM1151.71 933.387H1155.69V932.387H1151.71V933.387ZM1159.67 933.387H1163.65V932.387H1159.67V933.387ZM1167.63 933.387H1171.61V932.387H1167.63V933.387ZM1175.59 933.387H1179.57V932.387H1175.59V933.387ZM1183.55 933.387H1187.53V932.387H1183.55V933.387ZM1191.51 933.387H1195.5V932.387H1191.51V933.387ZM1199.48 933.387H1203.46V932.387H1199.48V933.387ZM1207.44 933.387H1211.42V932.387H1207.44V933.387ZM1215.4 933.387H1219.38V932.387H1215.4V933.387ZM1223.36 933.387H1227.34V932.387H1223.36V933.387ZM1231.32 933.387H1235.3V932.387H1231.32V933.387ZM1239.29 933.387H1243.27V932.387H1239.29V933.387ZM1247.25 933.387H1251.23V932.387H1247.25V933.387ZM1255.21 933.387H1259.19V932.387H1255.21V933.387ZM1263.17 933.387H1265.16V932.387H1263.17V933.387ZM1264.66 932.887V933.137H1265.66V932.887H1264.66ZM1264.66 933.637V933.887H1265.66V933.637H1264.66ZM1265.16 933.387H1263.17V934.387H1265.16V933.387ZM1259.19 933.387H1255.21V934.387H1259.19V933.387ZM1251.23 933.387H1247.25V934.387H1251.23V933.387ZM1243.27 933.387H1239.28V934.387H1243.27V933.387ZM1235.3 933.387H1231.32V934.387H1235.3V933.387ZM1227.34 933.387H1223.36V934.387H1227.34V933.387ZM1219.38 933.387H1215.4V934.387H1219.38V933.387ZM1211.42 933.387H1207.44V934.387H1211.42V933.387ZM1203.46 933.387H1199.48V934.387H1203.46V933.387ZM1195.5 933.387H1191.51V934.387H1195.5V933.387ZM1187.53 933.387H1183.55V934.387H1187.53V933.387ZM1179.57 933.387H1175.59V934.387H1179.57V933.387ZM1171.61 933.387H1167.63V934.387H1171.61V933.387ZM1163.65 933.387H1159.67V934.387H1163.65V933.387ZM1155.69 933.387H1151.71V934.387H1155.69V933.387ZM1147.72 933.387H1143.74V934.387H1147.72V933.387ZM1139.76 933.387H1135.78V934.387H1139.76V933.387ZM1131.8 933.387H1127.82V934.387H1131.8V933.387ZM1123.84 933.387H1119.86V934.387H1123.84V933.387ZM1115.88 933.387H1111.9V934.387H1115.88V933.387ZM1107.92 933.387H1103.93V934.387H1107.92V933.387ZM1099.95 933.387H1095.97V934.387H1099.95V933.387ZM1091.99 933.387H1088.01V934.387H1091.99V933.387ZM1084.03 933.387H1080.05V934.387H1084.03V933.387ZM1076.07 933.387H1072.09V934.387H1076.07V933.387ZM1068.11 933.387H1064.13V934.387H1068.11V933.387ZM1060.15 933.387H1056.16V934.387H1060.15V933.387ZM1052.18 933.387H1048.2V934.387H1052.18V933.387ZM1044.22 933.387H1040.24V934.387H1044.22V933.387ZM1036.26 933.387H1032.28V934.387H1036.26V933.387ZM1028.3 933.387H1024.32V934.387H1028.3V933.387ZM1020.34 933.387H1016.36V934.387H1020.34V933.387ZM1012.37 933.387H1008.39V934.387H1012.37V933.387ZM1004.41 933.387H1000.43V934.387H1004.41V933.387ZM996.451 933.387H992.47V934.387H996.451V933.387ZM988.489 933.387H984.508V934.387H988.489V933.387ZM980.527 933.387H976.547V934.387H980.527V933.387ZM972.566 933.387H968.585V934.387H972.566V933.387ZM964.604 933.387H960.623V934.387H964.604V933.387ZM956.642 933.387H952.661V934.387H956.642V933.387ZM948.68 933.387H944.699V934.387H948.68V933.387ZM940.718 933.387H936.738V934.387H940.718V933.387ZM932.757 933.387H928.776V934.387H932.757V933.387ZM924.795 933.387H920.814V934.387H924.795V933.387ZM916.833 933.387H912.852V934.387H916.833V933.387ZM908.871 933.387H904.89V934.387H908.871V933.387ZM900.91 933.387H896.929V934.387H900.91V933.387ZM892.948 933.387H888.967V934.387H892.948V933.387ZM884.986 933.387H881.005V934.387H884.986V933.387ZM877.024 933.387H873.043V934.387H877.024V933.387ZM869.062 933.387H865.081V934.387H869.062V933.387ZM861.101 933.387H857.12V934.387H861.101V933.387ZM853.139 933.387H849.158V934.387H853.139V933.387ZM845.177 933.387H841.196V934.387H845.177V933.387ZM837.215 933.387H833.234V934.387H837.215V933.387ZM829.253 933.387H825.272V934.387H829.253V933.387ZM821.292 933.387H817.311V934.387H821.292V933.387ZM813.33 933.387H809.349V934.387H813.33V933.387ZM805.368 933.387H801.387V934.387H805.368V933.387ZM797.406 933.387H793.425V934.387H797.406V933.387ZM789.444 933.387H785.464V934.387H789.444V933.387ZM781.483 933.387H777.502V934.387H781.483V933.387ZM773.521 933.387H769.54V934.387H773.521V933.387ZM765.559 933.387H761.578V934.387H765.559V933.387ZM757.597 933.387H753.616V934.387H757.597V933.387ZM749.635 933.387H745.655V934.387H749.635V933.387ZM741.674 933.387H737.693V934.387H741.674V933.387ZM733.712 933.387H729.731V934.387H733.712V933.387ZM725.75 933.387H721.769V934.387H725.75V933.387ZM717.788 933.387H713.807V934.387H717.788V933.387ZM709.827 933.387H705.846V934.387H709.827V933.387ZM701.865 933.387H697.884V934.387H701.865V933.387ZM693.903 933.387H689.922V934.387H693.903V933.387ZM685.941 933.387H681.96V934.387H685.941V933.387ZM677.979 933.387H673.998V934.387H677.979V933.387ZM670.018 933.387H668.028V934.387H670.018V933.387ZM1571.44 19.2918L1571.61 19.1086L1570.88 18.4282L1570.71 18.6114L1571.44 19.2918ZM1571.95 18.7422L1572.12 18.559L1571.39 17.8786L1571.22 18.0618L1571.95 18.7422ZM1571.41 18.5852L1572.83 19.9047L1573.51 19.1719L1572.09 17.8524L1571.41 18.5852ZM1575.68 22.5436L1578.52 25.1825L1579.2 24.4497L1576.36 21.8108L1575.68 22.5436ZM1581.36 27.8214L1584.2 30.4603L1584.88 29.7275L1582.04 27.0886L1581.36 27.8214ZM1587.04 33.0992L1589.88 35.7381L1590.56 35.0053L1587.72 32.3664L1587.04 33.0992ZM1592.73 38.377L1595.57 41.0159L1596.25 40.2831L1593.41 37.6442L1592.73 38.377ZM1598.41 43.6548L1601.25 46.2937L1601.93 45.5609L1599.09 42.922L1598.41 43.6548ZM1604.09 48.9326L1606.94 51.5715L1607.62 50.8388L1604.77 48.1998L1604.09 48.9326ZM1609.78 54.2104L1612.62 56.8494L1613.3 56.1166L1610.46 53.4777L1609.78 54.2104ZM1615.46 59.4883L1618.3 62.1272L1618.98 61.3944L1616.14 58.7555L1615.46 59.4883ZM1621.15 64.7661L1623.99 67.405L1624.67 66.6722L1621.83 64.0333L1621.15 64.7661ZM1626.83 70.0439L1629.67 72.6828L1630.35 71.95L1627.51 69.3111L1626.83 70.0439ZM1632.51 75.3217L1633.93 76.6412L1634.61 75.9084L1633.19 74.5889L1632.51 75.3217ZM1633.93 76.6412L1633.97 76.6782L1634.65 75.9454L1634.61 75.9084L1633.93 76.6412ZM1634.05 76.7524L1634.09 76.7895L1634.77 76.0567L1634.73 76.0196L1634.05 76.7524ZM1633.93 76.4231V76.4776H1634.93V76.4231H1633.93ZM1633.93 76.5866V76.6412H1634.93V76.5866H1633.93ZM1633.93 76.6412V78.6289H1634.93V76.6412H1633.93ZM1633.93 82.6043V86.5797H1634.93V82.6043H1633.93ZM1633.93 90.5551V94.5306H1634.93V90.5551H1633.93ZM1633.93 98.506V102.481H1634.93V98.506H1633.93ZM1633.93 106.457V110.432H1634.93V106.457H1633.93ZM1633.93 114.408V118.383H1634.93V114.408H1633.93ZM1633.93 122.359V126.334H1634.93V122.359H1633.93ZM1633.93 130.309V134.285H1634.93V130.309H1633.93ZM1633.93 138.26V142.236H1634.93V138.26H1633.93ZM1633.93 146.211V150.187H1634.93V146.211H1633.93ZM1633.93 154.162V158.137H1634.93V154.162H1633.93ZM1633.93 162.113V166.088H1634.93V162.113H1633.93ZM1633.93 170.064V174.039H1634.93V170.064H1633.93ZM1633.93 178.015V181.99H1634.93V178.015H1633.93ZM1633.93 185.965V189.941H1634.93V185.965H1633.93ZM1633.93 193.916V197.892H1634.93V193.916H1633.93ZM1633.93 201.867V205.842H1634.93V201.867H1633.93ZM1633.93 209.818V213.793H1634.93V209.818H1633.93ZM1633.93 217.769V221.744H1634.93V217.769H1633.93ZM1633.93 225.72V229.695H1634.93V225.72H1633.93ZM1633.93 233.67V235.658H1634.93V233.67H1633.93ZM1634.43 235.158H1634.18V236.158H1634.43V235.158ZM1633.68 235.158H1633.43V236.158H1633.68V235.158ZM1633.93 235.658V233.673H1632.93V235.658H1633.93ZM1633.93 229.703V225.733H1632.93V229.703H1633.93ZM1633.93 221.763V217.793H1632.93V221.763H1633.93ZM1633.93 213.823V209.853H1632.93V213.823H1633.93ZM1633.93 205.883V201.913H1632.93V205.883H1633.93ZM1633.93 197.943V193.973H1632.93V197.943H1633.93ZM1633.93 190.003V186.033H1632.93V190.003H1633.93ZM1633.93 182.064V178.094H1632.93V182.064H1633.93ZM1633.93 174.124V170.154H1632.93V174.124H1633.93ZM1633.93 166.184V162.214H1632.93V166.184H1633.93ZM1633.93 158.244V154.274H1632.93V158.244H1633.93ZM1633.93 150.304V146.334H1632.93V150.304H1633.93ZM1633.93 142.364V138.394H1632.93V142.364H1633.93ZM1633.93 134.424V130.454H1632.93V134.424H1633.93ZM1633.93 126.484V122.514H1632.93V126.484H1633.93ZM1633.93 118.544V114.574H1632.93V118.544H1633.93ZM1633.93 110.604V106.634H1632.93V110.604H1633.93ZM1633.93 102.664V98.6941H1632.93V102.664H1633.93ZM1633.93 94.7242V90.7542H1632.93V94.7242H1633.93ZM1633.93 86.7842V82.8142H1632.93V86.7842H1633.93ZM1633.93 78.8443V76.8592H1632.93V78.8443H1633.93ZM1633.77 76.4928L1632.36 75.1767L1631.68 75.9095L1633.09 77.2256L1633.77 76.4928ZM1629.52 72.5445L1626.69 69.9124L1626.01 70.6452L1628.84 73.2773L1629.52 72.5445ZM1623.85 67.2802L1621.02 64.6481L1620.34 65.3808L1623.17 68.013L1623.85 67.2802ZM1618.18 62.0159L1615.35 59.3837L1614.67 60.1165L1617.5 62.7487L1618.18 62.0159ZM1612.51 56.7516L1609.68 54.1194L1609 54.8522L1611.83 57.4844L1612.51 56.7516ZM1606.84 51.4872L1604.01 48.8551L1603.33 49.5879L1606.16 52.22L1606.84 51.4872ZM1601.18 46.2229L1598.34 43.5907L1597.66 44.3235L1600.5 46.9557L1601.18 46.2229ZM1595.51 40.9586L1592.67 38.3264L1591.99 39.0592L1594.83 41.6914L1595.51 40.9586ZM1589.84 35.6943L1587 33.0621L1586.32 33.7949L1589.16 36.427L1589.84 35.6943ZM1584.17 30.4299L1581.33 27.7978L1580.65 28.5306L1583.49 31.1627L1584.17 30.4299ZM1578.5 25.1656L1575.66 22.5334L1574.98 23.2662L1577.82 25.8984L1578.5 25.1656ZM1572.83 19.9013L1571.41 18.5852L1570.73 19.318L1572.15 20.6341L1572.83 19.9013ZM282.664 933.887V933.637H281.664V933.887H282.664ZM282.664 933.137V932.887H281.664V933.137H282.664ZM282.164 933.387H284.18V932.387H282.164V933.387ZM288.21 933.387H292.241V932.387H288.21V933.387ZM296.271 933.387H300.302V932.387H296.271V933.387ZM304.332 933.387H308.363V932.387H304.332V933.387ZM312.394 933.387H316.424V932.387H312.394V933.387ZM320.455 933.387H324.485V932.387H320.455V933.387ZM328.516 933.387H332.546V932.387H328.516V933.387ZM336.577 933.387H340.608V932.387H336.577V933.387ZM344.638 933.387H348.669V932.387H344.638V933.387ZM352.699 933.387H356.73V932.387H352.699V933.387ZM360.76 933.387H364.791V932.387H360.76V933.387ZM368.822 933.387H372.852V932.387H368.822V933.387ZM376.883 933.387H380.913V932.387H376.883V933.387ZM384.944 933.387H388.974V932.387H384.944V933.387ZM393.005 933.387H397.036V932.387H393.005V933.387ZM401.066 933.387H405.097V932.387H401.066V933.387ZM409.127 933.387H413.158V932.387H409.127V933.387ZM417.188 933.387H421.219V932.387H417.188V933.387ZM425.25 933.387H429.28V932.387H425.25V933.387ZM433.311 933.387H437.341V932.387H433.311V933.387ZM441.372 933.387H445.402V932.387H441.372V933.387ZM449.433 933.387H453.463V932.387H449.433V933.387ZM457.494 933.387H461.525V932.387H457.494V933.387ZM465.555 933.387H469.586V932.387H465.555V933.387ZM473.616 933.387H477.647V932.387H473.616V933.387ZM481.677 933.387H485.708V932.387H481.677V933.387ZM489.739 933.387H493.769V932.387H489.739V933.387ZM497.8 933.387H501.83V932.387H497.8V933.387ZM505.861 933.387H509.891V932.387H505.861V933.387ZM513.922 933.387H517.953V932.387H513.922V933.387ZM521.983 933.387H526.014V932.387H521.983V933.387ZM530.044 933.387H534.075V932.387H530.044V933.387ZM538.105 933.387H542.136V932.387H538.105V933.387ZM546.166 933.387H550.197V932.387H546.166V933.387ZM554.228 933.387H556.243V932.387H554.228V933.387ZM555.743 932.887V933.137H556.743V932.887H555.743ZM555.743 933.637V933.887H556.743V933.637H555.743ZM556.243 933.387H554.228V934.387H556.243V933.387ZM550.197 933.387H546.167V934.387H550.197V933.387ZM542.136 933.387H538.105V934.387H542.136V933.387ZM534.075 933.387H530.044V934.387H534.075V933.387ZM526.014 933.387H521.983V934.387H526.014V933.387ZM517.953 933.387H513.922V934.387H517.953V933.387ZM509.891 933.387H505.861V934.387H509.891V933.387ZM501.83 933.387H497.8V934.387H501.83V933.387ZM493.769 933.387H489.739V934.387H493.769V933.387ZM485.708 933.387H481.677V934.387H485.708V933.387ZM477.647 933.387H473.616V934.387H477.647V933.387ZM469.586 933.387H465.555V934.387H469.586V933.387ZM461.525 933.387H457.494V934.387H461.525V933.387ZM453.464 933.387H449.433V934.387H453.464V933.387ZM445.402 933.387H441.372V934.387H445.402V933.387ZM437.341 933.387H433.311V934.387H437.341V933.387ZM429.28 933.387H425.25V934.387H429.28V933.387ZM421.219 933.387H417.188V934.387H421.219V933.387ZM413.158 933.387H409.127V934.387H413.158V933.387ZM405.097 933.387H401.066V934.387H405.097V933.387ZM397.036 933.387H393.005V934.387H397.036V933.387ZM388.974 933.387H384.944V934.387H388.974V933.387ZM380.913 933.387H376.883V934.387H380.913V933.387ZM372.852 933.387H368.822V934.387H372.852V933.387ZM364.791 933.387H360.76V934.387H364.791V933.387ZM356.73 933.387H352.699V934.387H356.73V933.387ZM348.669 933.387H344.638V934.387H348.669V933.387ZM340.608 933.387H336.577V934.387H340.608V933.387ZM332.547 933.387H328.516V934.387H332.547V933.387ZM324.485 933.387H320.455V934.387H324.485V933.387ZM316.424 933.387H312.394V934.387H316.424V933.387ZM308.363 933.387H304.333V934.387H308.363V933.387ZM300.302 933.387H296.271V934.387H300.302V933.387ZM292.241 933.387H288.21V934.387H292.241V933.387ZM284.18 933.387H282.164V934.387H284.18V933.387ZM38.2031 279.858V281.857H39.2031V279.858H38.2031ZM38.2031 285.857V289.856H39.2031V285.857H38.2031ZM38.2031 293.855V297.855H39.2031V293.855H38.2031ZM38.2031 301.854V305.853H39.2031V301.854H38.2031ZM38.2031 309.853V313.852H39.2031V309.853H38.2031ZM38.2031 317.851V321.85H39.2031V317.851H38.2031ZM38.2031 325.85V329.849H39.2031V325.85H38.2031ZM38.2031 333.848V337.848H39.2031V333.848H38.2031ZM38.2031 341.847V345.846H39.2031V341.847H38.2031ZM38.2031 349.846V353.845H39.2031V349.846H38.2031ZM38.2031 357.844V361.844H39.2031V357.844H38.2031ZM38.2031 365.843V369.842H39.2031V365.843H38.2031ZM38.2031 373.842V377.841H39.2031V373.842H38.2031ZM38.2031 381.84V385.84H39.2031V381.84H38.2031ZM38.2031 389.839V393.838H39.2031V389.839H38.2031ZM38.2031 397.837V401.837H39.2031V397.837H38.2031ZM38.2031 405.836V409.835H39.2031V405.836H38.2031ZM38.2031 413.835V417.834H39.2031V413.835H38.2031ZM38.2031 421.833V425.833H39.2031V421.833H38.2031ZM38.2031 429.832V433.831H39.2031V429.832H38.2031ZM38.2031 437.831V441.83H39.2031V437.831H38.2031ZM38.2031 445.829V449.829H39.2031V445.829H38.2031ZM38.2031 453.828V457.827H39.2031V453.828H38.2031ZM38.2031 461.826V465.826H39.2031V461.826H38.2031ZM38.2031 469.825V473.824H39.2031V469.825H38.2031ZM38.2031 477.824V481.823H39.2031V477.824H38.2031ZM38.2031 485.822V489.822H39.2031V485.822H38.2031ZM38.2031 493.821V497.82H39.2031V493.821H38.2031ZM38.2031 501.82V505.819H39.2031V501.82H38.2031ZM38.2031 509.818V513.818H39.2031V509.818H38.2031ZM38.2031 517.817V521.816H39.2031V517.817H38.2031ZM38.2031 525.815V529.815H39.2031V525.815H38.2031ZM38.2031 533.814V537.813H39.2031V533.814H38.2031ZM38.2031 541.813V545.812H39.2031V541.813H38.2031ZM38.2031 549.811V553.811H39.2031V549.811H38.2031ZM38.2031 557.81V561.809H39.2031V557.81H38.2031ZM38.2031 565.809V569.808H39.2031V565.809H38.2031ZM38.2031 573.807V577.807H39.2031V573.807H38.2031ZM38.2031 581.806V585.805H39.2031V581.806H38.2031ZM38.2031 589.805V593.804H39.2031V589.805H38.2031ZM38.2031 597.803V601.803H39.2031V597.803H38.2031ZM38.2031 605.802V609.801H39.2031V605.802H38.2031ZM38.2031 613.801V615.8H39.2031V613.801H38.2031ZM38.7031 616.3H38.9531V615.3H38.7031V616.3ZM39.4531 616.3H39.7031V615.3H39.4531V616.3ZM40.2031 615.8V613.8H39.2031V615.8H40.2031ZM40.2031 609.801V605.802H39.2031V609.801H40.2031ZM40.2031 601.802V597.803H39.2031V601.802H40.2031ZM40.2031 593.804V589.805H39.2031V593.804H40.2031ZM40.2031 585.805V581.806H39.2031V585.805H40.2031ZM40.2031 577.807V573.807H39.2031V577.807H40.2031ZM40.2031 569.808V565.809H39.2031V569.808H40.2031ZM40.2031 561.809V557.81H39.2031V561.809H40.2031ZM40.2031 553.811V549.811H39.2031V553.811H40.2031ZM40.2031 545.812V541.813H39.2031V545.812H40.2031ZM40.2031 537.813V533.814H39.2031V537.813H40.2031ZM40.2031 529.815V525.815H39.2031V529.815H40.2031ZM40.2031 521.816V517.817H39.2031V521.816H40.2031ZM40.2031 513.818V509.818H39.2031V513.818H40.2031ZM40.2031 505.819V501.82H39.2031V505.819H40.2031ZM40.2031 497.82V493.821H39.2031V497.82H40.2031ZM40.2031 489.822V485.822H39.2031V489.822H40.2031ZM40.2031 481.823V477.824H39.2031V481.823H40.2031ZM40.2031 473.824V469.825H39.2031V473.824H40.2031ZM40.2031 465.826V461.826H39.2031V465.826H40.2031ZM40.2031 457.827V453.828H39.2031V457.827H40.2031ZM40.2031 449.829V445.829H39.2031V449.829H40.2031ZM40.2031 441.83V437.831H39.2031V441.83H40.2031ZM40.2031 433.831V429.832H39.2031V433.831H40.2031ZM40.2031 425.833V421.833H39.2031V425.833H40.2031ZM40.2031 417.834V413.835H39.2031V417.834H40.2031ZM40.2031 409.835V405.836H39.2031V409.835H40.2031ZM40.2031 401.837V397.837H39.2031V401.837H40.2031ZM40.2031 393.838V389.839H39.2031V393.838H40.2031ZM40.2031 385.84V381.84H39.2031V385.84H40.2031ZM40.2031 377.841V373.842H39.2031V377.841H40.2031ZM40.2031 369.842V365.843H39.2031V369.842H40.2031ZM40.2031 361.844V357.844H39.2031V361.844H40.2031ZM40.2031 353.845V349.846H39.2031V353.845H40.2031ZM40.2031 345.846V341.847H39.2031V345.846H40.2031ZM40.2031 337.848V333.848H39.2031V337.848H40.2031ZM40.2031 329.849V325.85H39.2031V329.849H40.2031ZM40.2031 321.85V317.851H39.2031V321.85H40.2031ZM40.2031 313.852V309.852H39.2031V313.852H40.2031ZM40.2031 305.853V301.854H39.2031V305.853H40.2031ZM40.2031 297.854V293.855H39.2031V297.854H40.2031ZM40.2031 289.856V285.856H39.2031V289.856H40.2031ZM40.2031 281.857V279.858H39.2031V281.857H40.2031ZM39.7031 279.358H39.4531V280.358H39.7031V279.358ZM38.9531 279.358H38.7031V280.358H38.9531V279.358Z" fill="#006174"/>
    <path d="M686.281 43.3282C688.606 42.8782 692.106 42.0782 695.406 41.2782L695.731 44.0032C692.681 44.7782 689.406 45.5782 686.906 46.2032L686.281 43.3282ZM686.881 37.0532H695.531V39.8032H686.881V37.0532ZM690.181 33.7532H692.956V47.7282C692.956 49.0782 692.706 49.8282 691.856 50.2532C691.031 50.7032 689.856 50.7532 688.181 50.7532C688.081 49.9782 687.731 48.8282 687.356 48.0782C688.381 48.1032 689.431 48.1032 689.731 48.1032C690.081 48.1032 690.181 48.0032 690.181 47.7032V33.7532ZM695.981 37.1782H705.781V39.7032H695.981V37.1782ZM695.556 44.1032L696.956 42.0032C699.156 43.2282 702.381 45.0782 703.906 46.3032L702.406 48.7032C700.931 47.4282 697.806 45.4282 695.556 44.1032ZM703.981 37.1782H706.756C706.456 44.1282 706.356 48.0782 707.156 48.0782C707.481 48.0782 707.656 47.3282 707.706 45.5782C708.256 46.0282 709.281 46.5032 709.931 46.6782C709.656 49.7782 708.906 50.6532 707.031 50.6532C703.431 50.6782 703.856 45.3782 703.981 37.1782ZM698.956 33.6532H701.781C701.681 42.4032 701.406 47.9282 696.281 51.1282C695.906 50.4282 695.081 49.3782 694.431 48.8782C698.881 46.1532 698.881 41.6032 698.956 33.6532ZM693.631 52.2032L696.406 51.9032C696.731 53.4282 697.006 55.4032 697.031 56.6032L694.081 57.0532C694.081 55.8282 693.906 53.7782 693.631 52.2032ZM698.706 52.1532L701.531 51.6782C702.156 53.1532 702.781 55.1282 703.006 56.3532L700.006 56.9532C699.831 55.7282 699.281 53.7032 698.706 52.1532ZM703.806 52.1282L706.481 51.0032C707.606 52.5282 709.031 54.6282 709.656 56.0032L706.806 57.3032C706.256 55.9282 704.931 53.7282 703.806 52.1282ZM689.356 51.1782L692.206 51.9282C691.431 53.7532 690.181 55.9032 689.156 57.2782L686.281 56.1032C687.281 54.9282 688.556 52.9532 689.356 51.1782ZM725.918 41.1532H734.493V43.9032H725.918V41.1532ZM723.443 45.8782H735.918V48.6782H723.443V45.8782ZM727.318 47.5532H730.343V57.1282H727.318V47.5532ZM730.143 36.8032C728.493 39.4032 725.568 42.6782 722.193 44.8032C721.818 44.0782 721.093 42.9032 720.518 42.2532C723.893 40.2532 727.093 36.5782 728.543 33.8532H731.493C733.568 36.8782 736.668 39.8532 739.693 41.3282C739.018 42.0782 738.343 43.1782 737.818 44.1282C734.993 42.3532 731.843 39.2782 730.143 36.8032ZM734.668 45.8782H737.618V51.9282C737.618 53.2782 737.393 54.1032 736.468 54.5782C735.543 55.0532 734.293 55.0532 732.643 55.0532C732.568 54.1782 732.193 52.9782 731.818 52.1532C732.818 52.2032 733.918 52.2032 734.243 52.1782C734.568 52.1782 734.668 52.1032 734.668 51.8282V45.8782ZM716.143 37.0282L718.193 34.8532C719.668 35.8282 721.618 37.2782 722.518 38.3532L720.293 40.7782C719.493 39.7032 717.618 38.1032 716.143 37.0282ZM715.768 53.3282C717.093 51.4782 718.968 48.4282 720.443 45.5532L722.718 47.6032C721.418 50.2032 719.868 52.9782 718.393 55.4282L715.768 53.3282ZM746.055 39.8282H753.03V42.8532H746.055V39.8282ZM755.78 33.7282H758.955V53.3032C758.955 55.1032 758.58 56.0032 757.53 56.5532C756.455 57.0782 754.805 57.2032 752.53 57.2032C752.405 56.2782 751.805 54.7532 751.33 53.8532C752.98 53.9282 754.555 53.9282 755.105 53.9282C755.605 53.9032 755.78 53.7532 755.78 53.2782V33.7282ZM752.005 39.8282H752.63L753.155 39.7282L755.23 40.4782C754.08 47.3032 751.33 52.4032 747.755 55.0282C747.23 54.3282 746.005 53.1032 745.28 52.6532C748.705 50.3532 751.155 46.0032 752.005 40.4782V39.8282ZM758.78 37.3782C760.38 44.0032 763.655 49.9032 769.255 52.5782C768.505 53.2032 767.455 54.4532 766.955 55.3782C761.155 52.1032 758.18 45.6032 756.405 37.8782L758.78 37.3782ZM765.78 37.6032L768.605 39.5782C766.48 41.8282 763.805 44.3532 761.705 45.9282L759.555 44.2282C761.58 42.5532 764.23 39.8282 765.78 37.6032ZM775.717 39.8282H782.692V42.8532H775.717V39.8282ZM785.442 33.7282H788.617V53.3032C788.617 55.1032 788.242 56.0032 787.192 56.5532C786.117 57.0782 784.467 57.2032 782.192 57.2032C782.067 56.2782 781.467 54.7532 780.992 53.8532C782.642 53.9282 784.217 53.9282 784.767 53.9282C785.267 53.9032 785.442 53.7532 785.442 53.2782V33.7282ZM781.667 39.8282H782.292L782.817 39.7282L784.892 40.4782C783.742 47.3032 780.992 52.4032 777.417 55.0282C776.892 54.3282 775.667 53.1032 774.942 52.6532C778.367 50.3532 780.817 46.0032 781.667 40.4782V39.8282ZM788.442 37.3782C790.042 44.0032 793.317 49.9032 798.917 52.5782C798.167 53.2032 797.117 54.4532 796.617 55.3782C790.817 52.1032 787.842 45.6032 786.067 37.8782L788.442 37.3782ZM795.442 37.6032L798.267 39.5782C796.142 41.8282 793.467 44.3532 791.367 45.9282L789.217 44.2282C791.242 42.5532 793.892 39.8282 795.442 37.6032ZM811.304 38.2782V39.1282H821.704V38.2782H811.304ZM811.304 36.0032V36.8282H821.704V36.0032H811.304ZM808.404 34.4782H824.729V40.6532H808.404V34.4782ZM810.779 48.2532V49.1532H822.379V48.2532H810.779ZM810.779 45.9032V46.7782H822.379V45.9032H810.779ZM807.954 44.3032H825.329V50.7282H807.954V44.3032ZM815.104 44.8282H818.029V55.5532H815.104V44.8282ZM805.229 41.4282H828.004V43.5532H805.229V41.4282ZM807.454 51.5532H825.804V53.4782H807.454V51.5532ZM805.179 54.3782H828.054V56.5782H805.179V54.3782ZM842.766 38.1032C844.741 46.4532 849.091 52.2282 858.241 54.2532C857.541 54.9032 856.591 56.2782 856.141 57.1782C846.566 54.6532 842.441 48.3532 840.066 38.7032L842.766 38.1032ZM835.866 34.9532H849.291V37.8782H835.866V34.9532ZM853.541 40.9032H854.116L854.641 40.7782L856.716 41.6032C854.766 50.3032 849.566 54.8532 842.466 57.1782C842.091 56.3782 841.341 55.1532 840.716 54.5032C847.116 52.8032 851.991 48.4782 853.541 41.4532V40.9032ZM848.616 34.9532H848.991L849.516 34.8282L851.841 35.2032C851.291 38.1782 850.441 41.8282 849.666 44.8032L846.516 44.3532C847.341 41.3532 848.216 37.4282 848.616 35.2782V34.9532ZM849.116 40.9032H854.166V43.7282H848.541L849.116 40.9032ZM839.866 35.7532H842.941V39.5782C842.941 44.4532 842.291 51.7282 836.541 56.7782C836.091 56.0032 835.041 54.7532 834.366 54.2032C839.341 49.9532 839.866 43.6532 839.866 39.5782V35.7532ZM865.928 35.8282L867.853 34.0032C869.203 35.1032 871.028 36.7532 871.878 37.8282L869.853 39.9032C869.053 38.7782 867.278 37.0282 865.928 35.8282ZM867.528 56.8282L866.853 54.2032L867.378 53.2782L872.328 49.1032C872.578 49.9032 873.078 51.0282 873.453 51.6032C868.803 55.5282 867.978 56.2282 867.528 56.8282ZM864.278 41.4032H868.803V44.2782H864.278V41.4032ZM875.878 34.5032H882.678V37.2782H875.878V34.5032ZM872.928 44.5532H884.328V47.3532H872.928V44.5532ZM883.428 44.5532H883.953L884.478 44.4532L886.303 45.2282C884.253 52.3032 879.203 55.5782 872.578 57.1282C872.328 56.3782 871.728 55.1782 871.228 54.5282C877.178 53.4782 881.853 50.4782 883.428 44.9782V44.5532ZM876.203 46.8532C878.178 50.7782 882.253 53.5032 887.778 54.5532C887.153 55.1782 886.353 56.4032 885.978 57.2032C880.128 55.8282 876.153 52.6032 873.703 47.7032L876.203 46.8532ZM875.153 34.5032H877.953V37.3032C877.953 39.8282 877.153 42.6282 873.578 44.2782C873.228 43.7032 872.153 42.5282 871.603 42.0782C874.753 40.7532 875.153 38.9282 875.153 37.2282V34.5032ZM881.303 34.5032H884.128V39.9782C884.128 40.7032 884.178 41.0032 884.553 41.0032C884.803 41.0032 885.553 41.0032 885.853 41.0032C886.228 41.0032 886.853 40.9282 887.203 40.8282C887.253 41.5782 887.328 42.6282 887.428 43.3032C887.053 43.4782 886.453 43.5032 885.878 43.5032C885.503 43.5032 884.628 43.5032 884.278 43.5032C881.803 43.5032 881.303 42.4532 881.303 39.9532V34.5032ZM867.528 56.8282C867.303 56.1282 866.528 54.8532 866.028 54.3032C866.578 53.9032 867.278 53.0032 867.278 51.8282V41.4032H870.178V53.9032C870.178 53.9032 867.528 55.7532 867.528 56.8282ZM901.39 35.7032H911.89V38.3032H901.39V35.7032ZM910.89 35.7032H911.515L911.99 35.5782L913.965 36.7282C910.465 42.6032 902.765 45.4032 894.815 46.5032C894.565 45.6782 894.015 44.3782 893.515 43.7032C901.04 42.9282 908.265 40.5032 910.89 36.1032V35.7032ZM901.365 38.1782C904.515 41.0532 910.89 42.8282 917.74 43.4282C917.09 44.1032 916.29 45.3782 915.89 46.2032C909.015 45.4032 902.74 43.2282 898.815 39.5282L901.365 38.1782ZM896.79 46.0782H914.09V57.1532H910.79V48.6532H899.915V57.1782H896.79V46.0782ZM898.24 50.0032H911.99V52.3282H898.24V50.0032ZM898.24 53.9032H911.99V56.4782H898.24V53.9032ZM903.915 47.1032H907.04V55.3282H903.915V47.1032ZM902.09 33.5782L905.29 34.2282C903.265 37.1782 900.565 39.7282 896.54 41.7532C896.115 41.0282 895.19 39.9782 894.54 39.5032C898.24 37.9282 900.74 35.6782 902.09 33.5782Z" fill="white"/>
    <path fill-rule="evenodd" clip-rule="evenodd" d="M19.6491 681.311V700.022H0.779297V681.311H19.6491V681.311Z" fill="#3FDCFF"/>
    <path fill-rule="evenodd" clip-rule="evenodd" d="M19.6491 728.667V747.378H0.779297V728.667H19.6491V728.667Z" fill="#FFCF00"/>
    <path fill-rule="evenodd" clip-rule="evenodd" d="M19.6491 776.557V795.268H0.779297V776.557H19.6491V776.557Z" fill="#FF7200"/>
    <path fill-rule="evenodd" clip-rule="evenodd" d="M30.3066 366.537V493.637L39.7415 513.706V344.856L30.3066 366.537V366.537Z" fill="#00FFF7"/>
    <path fill-rule="evenodd" clip-rule="evenodd" d="M1249.7 915.72V933.364H705.731V915.72H1249.7V915.72Z" fill="#00FFF7"/>
    <path fill-rule="evenodd" clip-rule="evenodd" d="M358.758 915.72V933.364H340.965V915.72H358.758V915.72Z" fill="#00FFF7"/>
    <path fill-rule="evenodd" clip-rule="evenodd" d="M392.057 915.72V933.364H374.264V915.72H392.057V915.72Z" fill="#00FFF7"/>
    <path fill-rule="evenodd" clip-rule="evenodd" d="M425.103 915.72V933.364H407.31V915.72H425.103V915.72Z" fill="#00FFF7"/>
    <path fill-rule="evenodd" clip-rule="evenodd" d="M458.147 915.72V933.364H440.354V915.72H458.147V915.72Z" fill="#00FFF7"/>
    <path fill-rule="evenodd" clip-rule="evenodd" d="M491.193 915.72V933.364H473.399V915.72H491.193V915.72Z" fill="#00FFF7"/>
    <path d="M217.524 15.8875H467.886" stroke="#00FFF7" stroke-width="2" stroke-dasharray="4 4"/>
    <g filter="url(#filter0_f_646_5559)">
        <path fill-rule="evenodd" clip-rule="evenodd" d="M1576.48 18.5615L1634.21 72.8737L1631.67 81.6585L1569.15 23.6026L1576.48 18.5615V18.5615Z" fill="#5AFFFA"/>
    </g>
    <path fill-rule="evenodd" clip-rule="evenodd" d="M1573.94 13.5205L1631.66 67.8327L1629.13 76.6175L1566.61 18.5616L1573.94 13.5205V13.5205Z" fill="#5AFFFA"/>
    <g filter="url(#filter1_f_646_5559)">
        <path fill-rule="evenodd" clip-rule="evenodd" d="M90.2854 18.3586L41.1094 65.2407V18.3586H90.2854V18.3586Z" fill="#00FFF7"/>
    </g>
    <path fill-rule="evenodd" clip-rule="evenodd" d="M83.0013 11L33.8252 57.882V11H83.0013V11Z" fill="#00FFF7"/>
    <defs>
        <filter id="filter0_f_646_5559" x="1557.15" y="6.56151" width="89.0547" height="87.0969" filterUnits="userSpaceOnUse" color-interpolation-filters="sRGB">
            <feFlood flood-opacity="0" result="BackgroundImageFix"/>
            <feBlend mode="normal" in="SourceGraphic" in2="BackgroundImageFix" result="shape"/>
            <feGaussianBlur stdDeviation="6" result="effect1_foregroundBlur_646_5559"/>
        </filter>
        <filter id="filter1_f_646_5559" x="23.1094" y="0.358631" width="85.1758" height="82.8821" filterUnits="userSpaceOnUse" color-interpolation-filters="sRGB">
            <feFlood flood-opacity="0" result="BackgroundImageFix"/>
            <feBlend mode="normal" in="SourceGraphic" in2="BackgroundImageFix" result="shape"/>
            <feGaussianBlur stdDeviation="9.00001" result="effect1_foregroundBlur_646_5559"/>
        </filter>
    </defs>
</svg>
