<svg width="161" height="161" viewBox="0 0 161 161" fill="none" xmlns="http://www.w3.org/2000/svg">
    <g filter="url(#filter0_i_38_699)">
        <path fill-rule="evenodd" clip-rule="evenodd" d="M80.4511 3C123.226 3 157.902 37.698 157.902 80.5C157.902 123.302 123.226 158 80.4511 158C37.6761 158 3 123.302 3 80.5C3 37.698 37.6761 3 80.4511 3V3Z" fill="#000918"/>
    </g>
    <path fill-rule="evenodd" clip-rule="evenodd" d="M80.4511 3C123.226 3 157.902 37.698 157.902 80.5C157.902 123.302 123.226 158 80.4511 158C37.6761 158 3 123.302 3 80.5C3 37.698 37.6761 3 80.4511 3V3Z" stroke="white" stroke-opacity="0.0705882" stroke-width="5"/>
    <path opacity="0.141733" fill-rule="evenodd" clip-rule="evenodd" d="M80.2553 11.6111C118.17 11.6111 148.905 42.3662 148.905 80.3043C148.905 118.242 118.17 148.998 80.2553 148.998C42.3411 148.998 11.6055 118.242 11.6055 80.3043C11.6055 42.3662 42.3411 11.6111 80.2553 11.6111V11.6111Z" stroke="#4AC1E2" stroke-width="2" stroke-dasharray="5 5"/>
    <defs>
        <filter id="filter0_i_38_699" x="0.5" y="0.5" width="159.902" height="161" filterUnits="userSpaceOnUse" color-interpolation-filters="sRGB">
            <feFlood flood-opacity="0" result="BackgroundImageFix"/>
            <feBlend mode="normal" in="SourceGraphic" in2="BackgroundImageFix" result="shape"/>
            <feColorMatrix in="SourceAlpha" type="matrix" values="0 0 0 0 0 0 0 0 0 0 0 0 0 0 0 0 0 0 127 0" result="hardAlpha"/>
            <feOffset dy="1"/>
            <feGaussianBlur stdDeviation="15"/>
            <feComposite in2="hardAlpha" operator="arithmetic" k2="-1" k3="1"/>
            <feColorMatrix type="matrix" values="0 0 0 0 0.027451 0 0 0 0 0.0901961 0 0 0 0 0.203922 0 0 0 0.470588 0"/>
            <feBlend mode="normal" in2="shape" result="effect1_innerShadow_38_699"/>
        </filter>
    </defs>
</svg>
