<svg width="473" height="296" viewBox="0 0 473 296" fill="none" xmlns="http://www.w3.org/2000/svg">
    <path d="M444.502 18.3648L461.611 35.6168V275.529L445.766 292.365H36.6498L17.6113 272.601V34.2011L34.4152 18.3648H444.502Z" fill="#0B2F36" stroke="#1C8394"/>
    <path d="M460.373 224.594V224.094H459.873V224.594H460.373ZM460.373 277.385L460.737 277.727L460.873 277.583V277.385H460.373ZM461.373 224.594H461.873V224.094H461.373V224.594ZM461.373 277.781L461.737 278.123L461.873 277.979V277.781H461.373ZM461.237 277.925L461.602 278.268L461.602 278.268L461.237 277.925ZM445.147 295.06L444.805 295.424L445.17 295.766L445.512 295.402L445.147 295.06ZM444.418 294.375L444.054 294.033L443.712 294.397L444.076 294.74L444.418 294.375ZM33.0345 18.7921H32.5345V19.2921H33.0345V18.7921ZM191.835 18.7921V19.2921H192.335V18.7921H191.835ZM33.0345 17.7921V17.2921H32.5345V17.7921H33.0345ZM191.835 17.7921H192.335V17.2921H191.835V17.7921ZM192.254 295.217H191.754V295.717H192.254V295.217ZM358.042 295.217V295.717H358.542V295.217H358.042ZM192.254 294.217V293.717H191.754V294.217H192.254ZM358.042 294.217H358.542V293.717H358.042V294.217ZM442.714 18.6437L442.362 18.2883L442.007 18.64L442.359 18.9954L442.714 18.6437ZM459.928 36.0404H460.428V35.8348L460.283 35.6887L459.928 36.0404ZM443.425 17.9404L443.78 17.5887L443.428 17.2333L443.073 17.585L443.425 17.9404ZM460.783 35.4831L460.428 35.8348L460.428 35.8348L460.783 35.4831ZM460.928 35.6292H461.428V35.4237L461.283 35.2776L460.928 35.6292ZM460.928 83.8849V84.3849H461.428V83.8849H460.928ZM459.928 83.8849H459.428V84.3849H459.928V83.8849ZM85.1237 295.217H84.6237V295.717H85.1237V295.217ZM161.219 295.217V295.717H161.719V295.217H161.219ZM85.1237 294.217V293.717H84.6237V294.217H85.1237ZM161.219 294.217H161.719V293.717H161.219V294.217ZM17.168 97.2406V96.7406H16.668V97.2406H17.168ZM17.168 198.752H16.668V199.252H17.168V198.752ZM18.168 97.2406H18.668V96.7406H18.168V97.2406ZM18.168 198.752V199.252H18.668V198.752H18.168ZM459.873 224.594V277.385H460.873V224.594H459.873ZM461.373 224.094H460.373V225.094H461.373V224.094ZM461.873 277.583V224.594H460.873V277.583H461.873ZM461.873 277.781V277.583H460.873V277.781H461.873ZM461.602 278.268L461.737 278.123L461.008 277.439L460.873 277.583L461.602 278.268ZM445.512 295.402L461.602 278.268L460.873 277.583L444.783 294.717L445.512 295.402ZM444.076 294.74L444.805 295.424L445.49 294.695L444.761 294.011L444.076 294.74ZM460.008 277.043L444.054 294.033L444.783 294.717L460.737 277.727L460.008 277.043ZM33.0345 19.2921H191.835V18.2921H33.0345V19.2921ZM32.5345 17.7921V18.7921H33.5345V17.7921H32.5345ZM191.835 17.2921H33.0345V18.2921H191.835V17.2921ZM192.335 18.7921V17.7921H191.335V18.7921H192.335ZM192.254 295.717H358.042V294.717H192.254V295.717ZM191.754 294.217V295.217H192.754V294.217H191.754ZM358.042 293.717H192.254V294.717H358.042V293.717ZM358.542 295.217V294.217H357.542V295.217H358.542ZM442.359 18.9954L459.572 36.392L460.283 35.6887L443.069 18.2921L442.359 18.9954ZM443.073 17.585L442.362 18.2883L443.066 18.9992L443.776 18.2958L443.073 17.585ZM461.139 35.1314L443.78 17.5887L443.069 18.2921L460.428 35.8348L461.139 35.1314ZM461.283 35.2776L461.139 35.1314L460.428 35.8348L460.572 35.9809L461.283 35.2776ZM461.428 35.8348V35.6292H460.428V35.8348H461.428ZM461.428 83.8849V35.8348H460.428V83.8849H461.428ZM459.928 84.3849H460.928V83.3849H459.928V84.3849ZM459.428 36.0404V83.8849H460.428V36.0404H459.428ZM85.1237 295.717H161.219V294.717H85.1237V295.717ZM84.6237 294.217V295.217H85.6237V294.217H84.6237ZM161.219 293.717H85.1237V294.717H161.219V293.717ZM161.719 295.217V294.217H160.719V295.217H161.719ZM16.668 97.2406V198.752H17.668V97.2406H16.668ZM18.168 96.7406H17.168V97.7406H18.168V96.7406ZM18.668 198.752V97.2406H17.668V198.752H18.668ZM17.168 199.252H18.168V198.252H17.168V199.252Z" fill="#006174"/>
    <path fill-rule="evenodd" clip-rule="evenodd" d="M12.239 218.547V224.201H7V218.547H12.239V218.547Z" fill="#3FDCFF"/>
    <path fill-rule="evenodd" clip-rule="evenodd" d="M12.239 232.857V238.511H7V232.857H12.239V232.857Z" fill="#FFCF00"/>
    <path fill-rule="evenodd" clip-rule="evenodd" d="M12.239 247.328V252.982H7V247.328H12.239V247.328Z" fill="#FF7200"/>
    <path fill-rule="evenodd" clip-rule="evenodd" d="M15.1978 123.432V161.838L17.8172 167.902V116.881L15.1978 123.432V123.432Z" fill="#00FFF7"/>
    <path fill-rule="evenodd" clip-rule="evenodd" d="M353.75 289.379V294.71H202.722V289.379H353.75V289.379Z" fill="#00FFF7"/>
    <path fill-rule="evenodd" clip-rule="evenodd" d="M106.389 289.379V294.71H101.449V289.379H106.389V289.379Z" fill="#00FFF7"/>
    <path fill-rule="evenodd" clip-rule="evenodd" d="M115.634 289.379V294.71H110.694V289.379H115.634V289.379Z" fill="#00FFF7"/>
    <path fill-rule="evenodd" clip-rule="evenodd" d="M124.808 289.379V294.71H119.868V289.379H124.808V289.379Z" fill="#00FFF7"/>
    <path fill-rule="evenodd" clip-rule="evenodd" d="M133.983 289.379V294.71H129.043V289.379H133.983V289.379Z" fill="#00FFF7"/>
    <path fill-rule="evenodd" clip-rule="evenodd" d="M143.158 289.379V294.71H138.218V289.379H143.158V289.379Z" fill="#00FFF7"/>
    <path d="M67.1763 17.4769H136.686" stroke="#00FFF7" stroke-width="2"/>
    <g filter="url(#filter0_f_25_307)">
        <path fill-rule="evenodd" clip-rule="evenodd" d="M444.476 18.2849L460.503 34.6964L459.8 37.3509L442.441 19.8082L444.476 18.2849V18.2849Z" fill="#5AFFFA"/>
    </g>
    <path fill-rule="evenodd" clip-rule="evenodd" d="M443.77 16.7617L459.798 33.1732L459.094 35.8277L441.736 18.2849L443.77 16.7617V16.7617Z" fill="#5AFFFA"/>
    <g filter="url(#filter1_f_25_307)">
        <path fill-rule="evenodd" clip-rule="evenodd" d="M31.8505 18.2235L18.1973 32.3898V18.2235H31.8505V18.2235Z" fill="#00FFF7"/>
    </g>
    <path fill-rule="evenodd" clip-rule="evenodd" d="M29.828 16L16.1748 30.1663V16H29.828V16Z" fill="#00FFF7"/>
    <defs>
        <filter id="filter0_f_25_307" x="430.441" y="6.2849" width="42.0615" height="43.066" filterUnits="userSpaceOnUse" color-interpolation-filters="sRGB">
            <feFlood flood-opacity="0" result="BackgroundImageFix"/>
            <feBlend mode="normal" in="SourceGraphic" in2="BackgroundImageFix" result="shape"/>
            <feGaussianBlur stdDeviation="6" result="effect1_foregroundBlur_25_307"/>
        </filter>
        <filter id="filter1_f_25_307" x="0.197254" y="0.223499" width="49.6533" height="50.1663" filterUnits="userSpaceOnUse" color-interpolation-filters="sRGB">
            <feFlood flood-opacity="0" result="BackgroundImageFix"/>
            <feBlend mode="normal" in="SourceGraphic" in2="BackgroundImageFix" result="shape"/>
            <feGaussianBlur stdDeviation="9.00001" result="effect1_foregroundBlur_25_307"/>
        </filter>
    </defs>
</svg>
