<svg width="294" height="172" viewBox="0 0 294 172" fill="none" xmlns="http://www.w3.org/2000/svg">
    <rect x="1" width="293" height="172" fill="black" fill-opacity="0.05"/>
    <rect x="1.5" y="0.5" width="292" height="171" stroke="#1BCF63" stroke-opacity="0.5"/>
    <rect width="293" height="46" transform="translate(1)" fill="#1BCF63" fill-opacity="0.1"/>
    <rect width="293" height="46" transform="translate(1)" fill="url(#paint0_linear_60_3254)" fill-opacity="0.3"/>
    <rect x="1" width="293" height="1" fill="#1BCF63" fill-opacity="0.3"/>
    <path fill-rule="evenodd" clip-rule="evenodd"
          d="M13.4032 15.5155H16.6834L22.2256 22.5L16.6834 29.4844H13.4032V29.4762C14.0061 29.4238 14.5647 29.126 14.9444 28.6475L16.3775 26.8414C18.3951 24.2988 18.3951 20.7012 16.3775 18.1586L14.9444 16.3525C14.5647 15.8741 14.0061 15.5762 13.4032 15.5239V15.5155ZM13.4032 15.5239C13.3398 15.5184 13.276 15.5156 13.2118 15.5156C11.9903 15.5156 11 16.5058 11 17.7274V27.2727C11 28.4942 11.9903 29.4845 13.2118 29.4845C13.276 29.4845 13.3398 29.4817 13.4032 29.4762V15.5239Z"
          fill="#1BCF63"/>
    <rect x="261" y="20" width="5" height="5" rx="2.5" fill="#1BCF63"/>
    <rect x="270" y="20" width="5" height="5" rx="2.5" fill="#1BCF63"/>
    <rect x="279" y="20" width="5" height="5" rx="2.5" fill="#1BCF63"/>
    <rect x="1" y="45" width="293" height="1" fill="#1BCF63" fill-opacity="0.2"/>
    <rect x="1" y="45" width="293" height="1" fill="url(#paint1_linear_60_3254)"/>
    <g filter="url(#filter0_f_60_3254)">
        <rect x="1" y="44" width="237.394" height="2" fill="url(#paint2_linear_60_3254)"/>
    </g>
    <rect x="7.5" y="62.5" width="63" height="63" stroke="#1BCF63" stroke-opacity="0.2"/>
    <path d="M8.00477 64.0061V67.6725L8 67.677V63H12.5725L12.5664 63.0061H9.00477H8.00477V64.0061Z" stroke="#1BCF63"
          stroke-width="2"/>
    <path d="M8.00526 123.994V120.327L8.00049 120.323V125H12.573L12.5669 124.994H9.00526H8.00526V123.994Z"
          stroke="#1BCF63" stroke-width="2"/>
    <path d="M69.9952 64.0061V67.6725L70 67.677V63H65.4275L65.4336 63.0061H68.9952H69.9952V64.0061Z" stroke="#1BCF63"
          stroke-width="2"/>
    <path d="M69.9952 123.994V120.327L70 120.323V125H65.4275L65.4336 124.994H68.9952H69.9952V123.994Z" stroke="#1BCF63"
          stroke-width="2"/>
    <g clip-path="url(#clip0_60_3254)">
        <path d="M43.3358 90.6796H39.061L34.6641 100.817H38.9389L36.1297 109.367L45.5343 97.1528H40.5267L43.3358 90.6796Z"
              fill="#1BCF63"/>
        <path d="M56.6491 79.8093H51.0308V78.7101H52.2521V71.6261H51.0308V69.7941H46.8781V71.6261H45.6567V78.8322H46.8781V79.9315H41.1376V78.7101H42.359V71.6261H41.1376V69.7941H36.985V71.6261H35.7636V78.8322H36.985V79.9315H31.2445V78.7101H32.4659V71.6261H31.2445V69.7941H26.9697V71.6261H25.7483V78.8322H26.9697V79.9315H21.3514C18.0537 79.8093 15.4888 82.4964 15.4888 85.6719V111.931C15.4888 115.107 18.0537 117.794 21.3514 117.794H56.6491C59.8246 117.794 62.5117 115.229 62.5117 111.931V85.6719C62.5117 82.4964 59.9468 79.8093 56.6491 79.8093ZM48.0995 70.8933H49.9315V71.1376H48.0995V70.8933ZM46.8781 72.7254H51.1529V73.3361H46.8781V72.7254ZM46.8781 75.4124V74.9238H51.1529V75.5345H46.8781V75.4124ZM46.8781 77.0002H51.1529V77.6109H46.8781V77.0002ZM48.0995 79.3208V79.0765H49.9315V79.3208H48.0995ZM38.0842 70.8933H39.9163V71.1376H38.0842V70.8933ZM36.8628 72.7254H41.1376V73.3361H36.8628V72.7254ZM36.8628 75.4124V74.9238H41.1376V75.5345H36.8628V75.4124ZM36.8628 77.0002H41.1376V77.6109H36.8628V77.0002ZM38.0842 79.3208V79.0765H39.9163V79.3208H38.0842ZM28.0689 70.8933H29.901V71.1376H28.0689V70.8933ZM26.8475 72.7254H31.1224V73.3361H26.8475V72.7254ZM26.8475 75.4124V74.9238H31.1224V75.5345H26.8475V75.4124ZM26.8475 77.0002H31.1224V77.6109H26.8475V77.0002ZM28.0689 79.3208V79.0765H29.901V79.3208H28.0689ZM58.7254 111.931C58.7254 113.031 57.8704 113.886 56.7712 113.886H21.3514C20.2521 113.886 19.3972 113.031 19.3972 111.931V85.6719C19.3972 84.5727 20.2521 83.7177 21.3514 83.7177H56.6491C57.7483 83.7177 58.6033 84.5727 58.6033 85.6719V111.931H58.7254Z"
              fill="#1BCF63"/>
        <path d="M52.9845 86.0383H24.8929C24.0379 86.0383 23.4272 86.649 23.4272 87.504V110.099C23.4272 110.954 24.0379 111.565 24.8929 111.565H52.9845C53.8395 111.565 54.4501 110.954 54.4501 110.099V87.504C54.5723 86.649 53.8395 86.0383 52.9845 86.0383ZM53.9616 110.099C53.9616 110.588 53.5952 111.077 52.9845 111.077H24.8929C24.5265 110.954 24.0379 110.588 24.0379 110.099V87.504C24.0379 87.0154 24.4043 86.5269 25.015 86.5269H53.1066C53.5952 86.5269 54.0837 86.8933 54.0837 87.504V110.099H53.9616Z"
              fill="#1BCF63"/>
    </g>
    <rect width="211" height="64" transform="translate(77 62)" fill="#1BCF63" fill-opacity="0.05"/>
    <path d="M78.0048 64.0061V67.6725L78 67.677V63H82.5725L82.5664 63.0061H79.0048H78.0048V64.0061Z" stroke="#1BCF63"
          stroke-width="2"/>
    <path d="M78.0048 123.994V120.327L78 120.323V125H82.5725L82.5664 124.994H79.0048H78.0048V123.994Z" stroke="#1BCF63"
          stroke-width="2"/>
    <path d="M286.995 64.0061V67.6725L287 67.677V63H282.428L282.434 63.0061H285.995H286.995V64.0061Z" stroke="#1BCF63"
          stroke-width="2"/>
    <path d="M286.995 123.994V120.327L287 120.323V125H282.428L282.434 124.994H285.995H286.995V123.994Z" stroke="#1BCF63"
          stroke-width="2"/>
    <g clip-path="url(#clip1_60_3254)">
        <rect x="6.5" y="142" width="6" height="6" fill="#1BCF63" fill-opacity="0.6"/>
        <rect x="18.5" y="142" width="6" height="6" fill="#1BCF63" fill-opacity="0.2"/>
        <rect x="30.5" y="142" width="6" height="6" fill="#1BCF63" fill-opacity="0.2"/>
        <rect x="42.5" y="142" width="6" height="6" fill="#1BCF63" fill-opacity="0.2"/>
        <rect x="54.5" y="142" width="6" height="6" fill="#1BCF63" fill-opacity="0.6"/>
        <rect x="66.5" y="142" width="6" height="6" fill="#1BCF63" fill-opacity="0.2"/>
        <rect x="78.5" y="142" width="6" height="6" fill="#1BCF63" fill-opacity="0.2"/>
        <rect x="90.5" y="142" width="6" height="6" fill="#1BCF63" fill-opacity="0.2"/>
        <rect x="102.5" y="142" width="6" height="6" fill="#1BCF63" fill-opacity="0.2"/>
        <rect x="114.5" y="142" width="6" height="6" fill="#1BCF63" fill-opacity="0.2"/>
        <rect x="126.5" y="142" width="6" height="6" fill="#1BCF63" fill-opacity="0.2"/>
        <rect x="138.5" y="142" width="6" height="6" fill="#1BCF63" fill-opacity="0.6"/>
        <rect x="150.5" y="142" width="6" height="6" fill="#1BCF63" fill-opacity="0.2"/>
        <rect x="162.5" y="142" width="6" height="6" fill="#1BCF63" fill-opacity="0.6"/>
        <rect x="174.5" y="142" width="6" height="6" fill="#1BCF63" fill-opacity="0.2"/>
        <rect x="186.5" y="142" width="6" height="6" fill="#1BCF63" fill-opacity="0.2"/>
        <rect x="198.5" y="142" width="6" height="6" fill="#1BCF63" fill-opacity="0.6"/>
        <rect x="210.5" y="142" width="6" height="6" fill="#1BCF63" fill-opacity="0.2"/>
        <rect x="222.5" y="142" width="6" height="6" fill="#1BCF63" fill-opacity="0.2"/>
        <rect x="234.5" y="142" width="6" height="6" fill="#1BCF63" fill-opacity="0.2"/>
        <rect x="246.5" y="142" width="6" height="6" fill="#1BCF63" fill-opacity="0.6"/>
        <rect x="258.5" y="142" width="6" height="6" fill="#1BCF63" fill-opacity="0.2"/>
        <rect x="270.5" y="142" width="6" height="6" fill="#1BCF63" fill-opacity="0.2"/>
        <rect x="282.5" y="142" width="6" height="6" fill="#1BCF63" fill-opacity="0.2"/>
        <rect x="6.5" y="152" width="6" height="6" fill="#1BCF63" fill-opacity="0.2"/>
        <rect x="18.5" y="152" width="6" height="6" fill="#1BCF63" fill-opacity="0.6"/>
        <rect x="30.5" y="152" width="6" height="6" fill="#1BCF63" fill-opacity="0.2"/>
        <rect x="42.5" y="152" width="6" height="6" fill="#1BCF63" fill-opacity="0.6"/>
        <rect x="54.5" y="152" width="6" height="6" fill="#1BCF63" fill-opacity="0.2"/>
        <rect x="66.5" y="152" width="6" height="6" fill="#1BCF63" fill-opacity="0.6"/>
        <rect x="78.5" y="152" width="6" height="6" fill="#1BCF63" fill-opacity="0.2"/>
        <rect x="90.5" y="152" width="6" height="6" fill="#1BCF63" fill-opacity="0.6"/>
        <rect x="102.5" y="152" width="6" height="6" fill="#1BCF63" fill-opacity="0.6"/>
        <rect x="114.5" y="152" width="6" height="6" fill="#1BCF63" fill-opacity="0.2"/>
        <rect x="126.5" y="152" width="6" height="6" fill="#1BCF63" fill-opacity="0.2"/>
        <rect x="138.5" y="152" width="6" height="6" fill="#1BCF63" fill-opacity="0.6"/>
        <rect x="150.5" y="152" width="6" height="6" fill="#1BCF63" fill-opacity="0.2"/>
        <rect x="162.5" y="152" width="6" height="6" fill="#1BCF63" fill-opacity="0.6"/>
        <rect x="174.5" y="152" width="6" height="6" fill="#1BCF63" fill-opacity="0.2"/>
        <rect x="186.5" y="152" width="6" height="6" fill="#1BCF63" fill-opacity="0.6"/>
        <rect x="198.5" y="152" width="6" height="6" fill="#1BCF63" fill-opacity="0.2"/>
        <rect x="210.5" y="152" width="6" height="6" fill="#1BCF63" fill-opacity="0.6"/>
        <rect x="222.5" y="152" width="6" height="6" fill="#1BCF63" fill-opacity="0.2"/>
        <rect x="234.5" y="152" width="6" height="6" fill="#1BCF63" fill-opacity="0.6"/>
        <rect x="246.5" y="152" width="6" height="6" fill="#1BCF63" fill-opacity="0.2"/>
        <rect x="258.5" y="152" width="6" height="6" fill="#1BCF63" fill-opacity="0.6"/>
        <rect x="270.5" y="152" width="6" height="6" fill="#1BCF63" fill-opacity="0.2"/>
        <rect x="282.5" y="152" width="6" height="6" fill="#1BCF63" fill-opacity="0.6"/>
        <rect x="6.5" y="162" width="6" height="6" fill="#1BCF63" fill-opacity="0.2"/>
        <rect x="18.5" y="162" width="6" height="6" fill="#1BCF63" fill-opacity="0.6"/>
        <rect x="30.5" y="162" width="6" height="6" fill="#1BCF63" fill-opacity="0.6"/>
        <rect x="42.5" y="162" width="6" height="6" fill="#1BCF63" fill-opacity="0.2"/>
        <rect x="54.5" y="162" width="6" height="6" fill="#1BCF63" fill-opacity="0.6"/>
        <rect x="66.5" y="162" width="6" height="6" fill="#1BCF63" fill-opacity="0.6"/>
        <rect x="78.5" y="162" width="6" height="6" fill="#1BCF63" fill-opacity="0.6"/>
        <rect x="90.5" y="162" width="6" height="6" fill="#1BCF63" fill-opacity="0.2"/>
        <rect x="102.5" y="162" width="6" height="6" fill="#1BCF63" fill-opacity="0.6"/>
        <rect x="114.5" y="162" width="6" height="6" fill="#1BCF63" fill-opacity="0.6"/>
        <rect x="126.5" y="162" width="6" height="6" fill="#1BCF63" fill-opacity="0.6"/>
        <rect x="138.5" y="162" width="6" height="6" fill="#1BCF63" fill-opacity="0.2"/>
        <rect x="150.5" y="162" width="6" height="6" fill="#1BCF63" fill-opacity="0.6"/>
        <rect x="162.5" y="162" width="6" height="6" fill="#1BCF63" fill-opacity="0.6"/>
        <rect x="174.5" y="162" width="6" height="6" fill="#1BCF63" fill-opacity="0.6"/>
        <rect x="186.5" y="162" width="6" height="6" fill="#1BCF63" fill-opacity="0.2"/>
        <rect x="198.5" y="162" width="6" height="6" fill="#1BCF63" fill-opacity="0.6"/>
        <rect x="210.5" y="162" width="6" height="6" fill="#1BCF63" fill-opacity="0.6"/>
        <rect x="222.5" y="162" width="6" height="6" fill="#1BCF63" fill-opacity="0.6"/>
        <rect x="234.5" y="162" width="6" height="6" fill="#1BCF63" fill-opacity="0.6"/>
        <rect x="246.5" y="162" width="6" height="6" fill="#1BCF63" fill-opacity="0.6"/>
        <rect x="258.5" y="162" width="6" height="6" fill="#1BCF63" fill-opacity="0.6"/>
        <rect x="270.5" y="162" width="6" height="6" fill="#1BCF63" fill-opacity="0.6"/>
        <rect x="282.5" y="162" width="6" height="6" fill="#1BCF63" fill-opacity="0.2"/>
    </g>
    <defs>
        <filter id="filter0_f_60_3254" x="0" y="43" width="239.394" height="4" filterUnits="userSpaceOnUse"
                color-interpolation-filters="sRGB">
            <feFlood flood-opacity="0" result="BackgroundImageFix"/>
            <feBlend mode="normal" in="SourceGraphic" in2="BackgroundImageFix" result="shape"/>
            <feGaussianBlur stdDeviation="0.5" result="effect1_foregroundBlur_60_3254"/>
        </filter>
        <linearGradient id="paint0_linear_60_3254" x1="0" y1="-743.549" x2="293" y2="-743.549"
                        gradientUnits="userSpaceOnUse">
            <stop stop-color="#1BCF63" stop-opacity="0"/>
            <stop offset="0.505208" stop-color="#1BCF63"/>
            <stop offset="1" stop-color="#1BCF63" stop-opacity="0"/>
        </linearGradient>
        <linearGradient id="paint1_linear_60_3254" x1="1" y1="28.8359" x2="294" y2="28.8359"
                        gradientUnits="userSpaceOnUse">
            <stop stop-color="#1BCF63" stop-opacity="0"/>
            <stop offset="0.223958" stop-color="#1BCF63" stop-opacity="0.5"/>
            <stop offset="0.270833" stop-color="#1BCF63" stop-opacity="0.95"/>
            <stop offset="0.322917" stop-color="#1BCF63" stop-opacity="0.5"/>
            <stop offset="1" stop-color="#1BCF63" stop-opacity="0"/>
        </linearGradient>
        <linearGradient id="paint2_linear_60_3254" x1="1" y1="11.6718" x2="238.394" y2="11.6718"
                        gradientUnits="userSpaceOnUse">
            <stop offset="0.151042" stop-color="#1BCF63" stop-opacity="0"/>
            <stop offset="0.380208" stop-color="#1BCF63" stop-opacity="0.5"/>
            <stop offset="0.515625" stop-color="#1BCF63"/>
            <stop offset="0.614583" stop-color="#1BCF63" stop-opacity="0.5"/>
            <stop offset="0.859375" stop-color="#1BCF63" stop-opacity="0"/>
        </linearGradient>
        <clipPath id="clip0_60_3254">
            <rect width="48" height="48" fill="white" transform="translate(15 69.7941)"/>
        </clipPath>
        <clipPath id="clip1_60_3254">
            <rect width="293" height="30" fill="white" transform="translate(1 142)"/>
        </clipPath>
    </defs>
</svg>
